<svg width="38" height="38" viewBox="0 0 38 38" fill="none" xmlns="http://www.w3.org/2000/svg">
<path d="M21.9992 5.27236C23.1329 5.30048 24.345 4.92738 25.2502 4.24271C25.4015 4.12821 25.5514 4.01241 25.7338 3.9541C26.0393 3.97388 26.1658 4.22813 26.2312 4.5002C26.6932 6.4242 26.3975 7.8856 25.4493 9.5389C25.5891 9.7354 25.9747 10.1331 25.8473 10.363C25.6043 10.802 24.7371 11.4086 24.3369 11.6383C22.8796 12.475 21.5864 12.5042 20.0349 12.0848C19.8031 12.3169 19.5618 12.5475 19.3265 12.7767C23.2657 12.5462 25.6872 16.094 24.9502 19.828C24.8734 20.2463 25.2186 20.5335 25.4898 20.7966C27.532 22.7778 29.5111 24.8492 31.5302 26.8504L33.2163 28.5226C33.4355 28.7384 34.2563 29.4653 34.281 29.7118C34.372 30.6192 34.5916 32.5047 34.5105 33.397C34.2222 33.9298 33.7859 34.1374 33.1984 34.1107C32.4781 34.0778 31.687 34.1543 30.9745 34.1088C29.9806 33.3084 29.8684 33.2201 30.0322 32.1239L29.7761 31.8412C29.466 31.8702 29.0813 31.9336 28.7836 31.9384C28.4865 31.7113 28.0786 31.345 27.9052 31.0172C27.9328 30.6916 28.0341 30.4046 28.132 30.0952C28.0205 29.9806 27.9146 29.8482 27.8118 29.7247C27.4431 29.7568 26.8253 30.0048 26.5684 29.6533C26.4363 29.4725 25.9049 29.0755 25.9174 28.8642C25.9557 28.2188 26.0931 27.5414 26.1984 26.8985C25.8667 26.4913 25.2408 25.9371 24.8522 25.5477L23.436 24.1304C22.6193 23.3182 22.5167 22.8672 21.4233 23.2808C20.0221 23.811 18.5456 23.7201 17.1778 23.1314L16.8392 22.9816C16.1113 28.2737 10.3008 31.194 5.574 28.7548C-0.548047 25.5956 0.301662 16.7212 7.0602 14.6444C6.6931 13.9462 5.6687 10.7444 6.7209 10.7555C8.9499 10.7792 11.3398 12.7158 11.782 14.9139C12.6504 12.0238 15.5704 11.0029 17.9611 12.8757C18.4138 12.3886 18.8747 11.9596 19.3265 11.4516C18.6274 10.3474 18.5784 8.6335 19.0101 7.4195C19.3988 6.3262 19.4925 5.88132 20.5142 6.2453C20.9869 5.62311 21.2254 4.70927 21.9992 5.27236ZM25.4493 5.18261C24.1913 5.97242 23.1555 6.1934 21.6922 6.1525C21.1758 6.9311 21.0683 7.4459 20.1471 7.0448C19.6154 8.2194 19.4052 9.5655 19.9652 10.7782C20.9218 9.9372 21.7698 8.9029 22.736 8.0694C22.903 7.9253 23.135 7.995 23.2938 8.1121C23.5928 8.4863 23.3545 8.6932 23.0813 8.9722L21.417 10.6412C21.1984 10.8578 20.8864 11.1491 20.6912 11.3696C22.3113 11.5737 23.5382 11.3668 24.8134 10.1828C24.2983 9.6585 24.2739 9.574 24.708 8.9759C25.3289 8.1208 25.8004 6.1974 25.4493 5.18261ZM7.1769 11.6907C7.1439 13.8683 8.6847 16.1067 10.9627 16.3297C10.9897 16.3323 11.0152 16.3282 11.0415 16.322C11.3091 14.2239 9.2201 11.9441 7.1769 11.6907ZM15.4307 12.7767C14.0518 12.9863 13.1964 13.7079 12.6745 15.0097C13.3463 14.76 13.7069 14.6432 14.4507 14.6444C14.9841 14.61 15.5815 14.654 16.0942 14.8113C16.5224 14.3617 16.9368 14.0405 17.3505 13.5488C16.704 12.953 16.2749 12.867 15.4307 12.7767ZM19.4174 13.702C18.9347 13.7193 18.6066 13.7795 18.16 13.9749C20.6055 14.5687 21.2598 17.705 19.0911 19.0568C17.8523 19.8289 16.0629 19.4844 15.1494 18.3671C15.0623 18.3899 14.9769 18.4132 14.8888 18.4321C15.263 21.1054 17.3558 23.0423 20.1226 22.6905C21.1406 22.5612 22.0188 21.7764 23.0491 22.5173C23.3008 22.7145 23.599 23.0431 23.83 23.2742L27.8717 27.2361C28.3875 27.7329 29.0976 28.3491 29.5275 28.9147C29.8319 29.1305 30.5571 29.9039 30.8536 30.2013L33.6051 32.9725C33.5585 32.0147 33.4615 30.9325 33.4461 29.9917C33.0271 29.6068 32.5986 29.1673 32.1929 28.7642L29.7449 26.2912C28.8708 25.3994 27.9522 24.5418 27.0866 23.6388C26.264 22.7807 24.3889 21.2929 24.1266 20.1977C23.978 19.5773 24.1856 19.1633 24.2178 18.5383C24.3498 15.9745 22.3027 13.6701 19.7036 13.6795C19.6211 13.6798 19.4984 13.6858 19.4174 13.702ZM17.5498 14.8113C17.3562 14.9411 17.3156 14.9625 17.1778 15.1569L17.206 15.1781C17.6235 15.4892 18.6101 15.7639 18.0142 16.4572C17.4637 17.0979 16.8144 17.5987 16.0942 18.0356C16.4173 18.2826 16.6598 18.424 17.0631 18.5178C20.1716 19.098 20.1859 14.7113 17.5498 14.8113ZM7.5386 15.3878C7.0758 15.5641 6.5799 15.7291 6.1338 15.9381C3.03929 17.3814 1.52634 21.2574 2.78587 24.4285C4.04416 27.5966 7.4132 29.3049 10.7169 28.5521C13.5584 27.839 15.9427 25.3524 16.0063 22.357C14.7884 21.373 14.2199 20.0322 13.9989 18.5178C13.0321 18.298 12.657 18.3431 11.6916 17.7803C11.4822 17.6583 11.1613 17.3071 10.9928 17.2435C10.6935 17.1307 10.2925 17.1059 9.9571 17.0059C8.8503 16.6754 8.3088 16.1356 7.5386 15.3878ZM14.2222 15.519C13.4499 15.6029 12.1759 15.9903 11.782 16.7238C12.4677 17.3614 13.4338 17.5866 14.3488 17.5515L14.5912 17.5397C15.5953 17.3893 16.3608 16.8991 17.0631 16.1895C16.0891 15.6681 15.3442 15.4574 14.2222 15.519ZM26.9765 27.6186C26.9391 27.9181 26.8883 28.3347 26.8228 28.6272C26.9258 28.7246 27.0299 28.8282 27.142 28.9147C28.5099 28.526 29.1527 29.5375 28.8782 30.7806L29.103 31.0172C30.3716 30.8318 31.076 31.3416 30.8498 32.7079C31.0117 32.877 31.1459 33.0211 31.2982 33.2003H32.1782C32.3203 33.2013 32.4702 33.2045 32.6116 33.2003C31.4821 32.1817 30.2307 30.8564 29.146 29.7564C28.4647 29.0655 27.7025 28.2568 26.9765 27.6186Z" fill="white"/>
<path d="M22.5519 5.31826C23.6856 5.34638 24.8977 4.97328 25.8029 4.2886C25.9543 4.17411 26.1041 4.05831 26.2865 4C26.592 4.01977 26.7186 4.27402 26.7839 4.5461C27.246 6.4701 26.9502 7.9315 26.0021 9.5848C26.1419 9.7813 26.5274 10.179 26.4001 10.4089C26.1571 10.8479 25.2898 11.4545 24.8896 11.6842C23.4324 12.5209 22.1392 12.5501 20.5876 12.1307C20.3558 12.3628 20.1145 12.5934 19.8792 12.8226C23.8184 12.5921 26.24 16.1398 25.5029 19.8739C25.4262 20.2922 25.7714 20.5794 26.0425 20.8425C28.0847 22.8237 30.0638 24.8951 32.083 26.8963L33.7691 28.5685C33.9883 28.7843 34.809 29.5112 34.8337 29.7577C34.9247 30.6651 35.1443 32.5506 35.0633 33.4429C34.775 33.9757 34.3387 34.1833 33.7512 34.1566C33.0308 34.1237 32.2397 34.2001 31.5273 34.1547C30.5333 33.3543 30.4211 33.266 30.5849 32.1698L30.3289 31.8871C30.0187 31.9161 29.634 31.9795 29.3364 31.9843C29.0392 31.7572 28.6313 31.3909 28.458 31.0631C28.4855 30.7375 28.5869 30.4505 28.6847 30.1411C28.5732 30.0265 28.4673 29.8941 28.3645 29.7706C27.9959 29.8027 27.378 30.0507 27.1212 29.6992C26.989 29.5184 26.4577 29.1214 26.4702 28.9101C26.5084 28.2647 26.6458 27.5873 26.7511 26.9444C26.4194 26.5372 25.7935 25.983 25.405 25.5936L23.9888 24.1763C23.172 23.3641 23.0695 22.9131 21.9761 23.3267C20.5748 23.8569 19.0983 23.766 17.7305 23.1773L17.3919 23.0275C16.6641 28.3196 10.8535 31.2399 6.1268 28.8007C0.00467539 25.6415 0.854395 16.767 7.6129 14.6903C7.2458 13.9921 6.2214 10.7903 7.2736 10.8014C9.5026 10.8251 11.8926 12.7617 12.3348 14.9598C13.2031 12.0697 16.1231 11.0488 18.5139 12.9216C18.9665 12.4345 19.4274 12.0055 19.8792 11.4975C19.1801 10.3933 19.1312 8.6794 19.5628 7.4654C19.9515 6.3721 20.0453 5.92722 21.067 6.2912C21.5396 5.66901 21.7782 4.75517 22.5519 5.31826ZM26.0021 5.22851C24.7441 6.0183 23.7083 6.2393 22.2449 6.1984C21.7286 6.977 21.621 7.4918 20.6999 7.0907C20.1682 8.2653 19.9579 9.6114 20.5179 10.8241C21.4745 9.9831 22.3225 8.9488 23.2887 8.1153C23.4557 7.9712 23.6877 8.0409 23.8465 8.158C24.1455 8.5322 23.9073 8.7391 23.6341 9.0181L21.9697 10.6871C21.7511 10.9037 21.4392 11.195 21.2439 11.4155C22.864 11.6196 24.0909 11.4127 25.3662 10.2287C24.8511 9.7044 24.8266 9.6199 25.2608 9.0218C25.8817 8.1667 26.3531 6.2433 26.0021 5.22851ZM7.7297 11.7366C7.6967 13.9142 9.2374 16.1526 11.5154 16.3756C11.5424 16.3782 11.568 16.3741 11.5942 16.3679C11.8618 14.2698 9.7728 11.99 7.7297 11.7366ZM15.9834 12.8226C14.6045 13.0322 13.7491 13.7538 13.2272 15.0556C13.899 14.8059 14.2596 14.6891 15.0034 14.6903C15.5368 14.6559 16.1343 14.6999 16.6469 14.8571C17.0751 14.4076 17.4896 14.0864 17.9032 13.5947C17.2568 12.9989 16.8276 12.9129 15.9834 12.8226ZM19.9701 13.7479C19.4874 13.7652 19.1593 13.8254 18.7127 14.0208C21.1582 14.6146 21.8126 17.7509 19.6438 19.1027C18.4051 19.8748 16.6156 19.5303 15.7021 18.413C15.6151 18.4358 15.5296 18.4591 15.4416 18.478C15.8158 21.1513 17.9085 23.0882 20.6753 22.7364C21.6933 22.6071 22.5716 21.8223 23.6018 22.5632C23.8535 22.7604 24.1517 23.089 24.3827 23.3201L28.4244 27.282C28.9402 27.7788 29.6504 28.395 30.0803 28.9606C30.3846 29.1764 31.1099 29.9498 31.4064 30.2472L34.1578 33.0184C34.1113 32.0606 34.0142 30.9784 33.9989 30.0376C33.5799 29.6527 33.1513 29.2132 32.7457 28.8101L30.2976 26.3371C29.4235 25.4453 28.5049 24.5877 27.6393 23.6847C26.8167 22.8266 24.9416 21.3388 24.6793 20.2436C24.5307 19.6232 24.7383 19.2092 24.7705 18.5842C24.9026 16.0204 22.8555 13.716 20.2563 13.7254C20.1738 13.7257 20.0511 13.7317 19.9701 13.7479ZM18.1026 14.8571C17.9089 14.987 17.8683 15.0084 17.7305 15.2028L17.7587 15.224C18.1762 15.5351 19.1628 15.8098 18.567 16.5031C18.0164 17.1438 17.3671 17.6446 16.6469 18.0815C16.9701 18.3285 17.2126 18.4699 17.6159 18.5637C20.7244 19.1439 20.7387 14.7572 18.1026 14.8571ZM8.0914 15.4337C7.6286 15.61 7.1326 15.775 6.6866 15.984C3.59202 17.4273 2.07907 21.3033 3.3386 24.4744C4.59689 27.6425 7.9659 29.3508 11.2696 28.598C14.1112 27.8849 16.4954 25.3983 16.559 22.4029C15.3411 21.4189 14.7726 20.0781 14.5517 18.5637C13.5849 18.3439 13.2098 18.389 12.2443 17.8262C12.035 17.7042 11.714 17.353 11.5455 17.2894C11.2462 17.1766 10.8453 17.1518 10.5099 17.0518C9.403 16.7213 8.8615 16.1815 8.0914 15.4337ZM14.7749 15.5649C14.0026 15.6488 12.7286 16.0362 12.3348 16.7697C13.0205 17.4073 13.9866 17.6325 14.9015 17.5974L15.1439 17.5856C16.148 17.4352 16.9136 16.945 17.6159 16.2354C16.6418 15.714 15.8969 15.5033 14.7749 15.5649ZM27.5292 27.6645C27.4919 27.964 27.441 28.3806 27.3755 28.6731C27.4786 28.7705 27.5826 28.8741 27.6947 28.9606C29.0626 28.5719 29.7054 29.5834 29.431 30.8265L29.6557 31.0631C30.9243 30.8777 31.6287 31.3875 31.4025 32.7538C31.5644 32.9229 31.6986 33.067 31.8509 33.2462H32.7309C32.8731 33.2472 33.0229 33.2504 33.1643 33.2462C32.0348 32.2276 30.7835 30.9023 29.6987 29.8023C29.0174 29.1114 28.2553 28.3027 27.5292 27.6645Z" fill="white"/>
<path d="M7.95569 26.4635C6.60159 26.6442 5.35729 25.693 5.17639 24.3389C4.99542 22.9848 5.94629 21.7404 7.30049 21.5592C8.65489 21.378 9.89969 22.3292 10.0807 23.6837C10.2616 25.0381 9.31019 26.2828 7.95569 26.4635ZM7.57499 22.4234C6.69909 22.4571 6.01589 23.1936 6.04789 24.0696C6.07979 24.9455 6.81489 25.6302 7.69099 25.6001C8.56949 25.5698 9.25659 24.8321 9.22459 23.9536C9.19249 23.0751 8.45339 22.3895 7.57499 22.4234Z" fill="white"/>
</svg>
