<svg width="193" height="193" viewBox="0 0 193 193" fill="none" xmlns="http://www.w3.org/2000/svg">
<path d="M113.896 40.617C118.515 40.8499 123.495 39.4553 127.256 36.7586C127.885 36.3076 128.508 35.8511 129.258 35.6325C130.501 35.7449 130.99 36.7946 131.228 37.9106C132.911 45.8019 131.553 51.7286 127.516 58.3696C128.065 59.1856 129.595 60.8468 129.052 61.7708C128.016 63.535 124.417 65.9175 122.762 66.8123C116.734 70.0712 111.459 70.055 105.178 68.1835C104.209 69.1058 103.201 70.0208 102.218 70.9306C118.3 70.4016 127.802 85.1169 124.408 100.262C124.051 101.96 125.429 103.166 126.506 104.267C134.625 112.557 142.477 121.207 150.5 129.576L157.199 136.569C158.07 137.471 161.34 140.52 161.415 141.528C161.691 145.236 162.39 152.946 161.966 156.574C160.735 158.717 158.935 159.517 156.543 159.347C153.61 159.138 150.377 159.367 147.477 159.107C143.509 155.741 143.061 155.369 143.843 150.917L142.828 149.739C141.561 149.824 139.986 150.043 138.772 150.031C137.585 149.074 135.96 147.539 135.287 146.184C135.434 144.86 135.877 143.7 136.308 142.449C135.865 141.97 135.447 141.42 135.041 140.905C133.535 140.998 130.991 141.944 129.98 140.485C129.46 139.734 127.336 138.06 127.408 137.2C127.632 134.573 128.262 131.826 128.759 129.216C127.449 127.521 124.955 125.197 123.412 123.569L117.787 117.643C114.542 114.247 114.171 112.398 109.67 113.97C103.902 115.985 97.8929 115.461 92.3784 112.918L91.0136 112.272C87.4946 133.77 63.5028 145.069 44.4881 134.632C19.8604 121.115 24.2498 85.0262 52.0183 77.265C50.5946 74.3806 46.7524 61.2211 51.0405 61.3762C60.1249 61.7054 69.6657 69.8493 71.2391 78.8563C75.0804 67.1651 87.0906 63.3075 96.6414 71.1914C98.5374 69.2531 100.461 67.5523 102.356 65.5286C99.6212 60.9541 99.6003 53.9623 101.486 49.0584C103.185 44.642 103.614 42.8381 107.741 44.4283C109.733 41.9413 110.8 38.2408 113.896 40.617ZM127.97 40.6109C122.759 43.6995 118.514 44.4925 112.552 44.1728C110.366 47.2933 109.874 49.3804 106.161 47.6493C103.871 52.3823 102.873 57.848 105.03 62.8498C109.017 59.5214 112.582 55.3935 116.608 52.0961C117.304 51.5261 118.242 51.8345 118.877 52.3286C120.057 53.8853 119.064 54.7036 117.921 55.8127L110.962 62.443C110.049 63.3029 108.747 64.4581 107.928 65.3366C114.511 66.3377 119.534 65.6221 124.856 60.9282C122.811 58.7374 122.72 58.3902 124.552 55.9973C127.173 52.5761 129.295 44.7844 127.97 40.6109ZM52.8021 65.2362C52.4406 74.11 58.4881 83.3956 67.7512 84.5423C67.8612 84.5557 67.9657 84.5415 68.0732 84.519C69.3831 75.9941 61.1047 66.4821 52.8021 65.2362ZM86.3361 70.5243C80.6929 71.2349 77.1305 74.0871 74.8672 79.3398C77.6321 78.392 79.1141 77.9531 82.1462 78.0358C84.3242 77.9512 86.7552 78.1929 88.8287 78.8873C90.6212 77.0992 92.3442 75.8331 94.0817 73.8717C91.5086 71.3757 89.768 70.9804 86.3361 70.5243ZM102.492 74.7121C100.522 74.7321 99.1783 74.9433 97.3373 75.6933C107.245 78.3689 109.585 91.2228 100.603 96.5073C95.4727 99.5258 88.2139 97.9345 84.6063 93.2845C84.249 93.3685 83.8983 93.4544 83.5374 93.5225C84.784 104.459 93.1132 112.573 104.429 111.428C108.593 111.007 112.255 107.899 116.377 111.027C117.383 111.857 118.564 113.228 119.482 114.194L135.545 130.767C137.596 132.846 140.427 135.432 142.12 137.782C143.339 138.694 146.214 141.922 147.392 143.166L158.319 154.75C158.23 150.84 157.947 146.418 157.982 142.582C156.314 140.969 154.613 139.132 153.002 137.447L143.28 127.11C139.809 123.384 136.154 119.791 132.72 116.02C129.456 112.436 121.967 106.176 121.012 101.683C120.471 99.1387 121.36 97.4727 121.557 94.9283C122.362 84.4902 114.257 74.883 103.661 74.65C103.324 74.6425 102.824 74.6543 102.492 74.7121ZM94.7628 79.0391C93.96 79.5482 93.7922 79.6311 93.2101 80.4093L93.3229 80.4987C94.9924 81.8106 98.9856 83.0331 96.4843 85.7974C94.1731 88.3518 91.4739 90.3256 88.4924 92.0315C89.7841 93.0725 90.7579 93.6739 92.3922 94.0987C105.004 96.7878 105.52 78.9064 94.7628 79.0391ZM53.8911 80.3453C51.9861 81.0157 49.9471 81.6368 48.1069 82.4422C35.3412 88.0033 28.7693 103.646 33.5731 116.705C38.3722 129.751 51.9283 137.067 65.4745 134.343C77.1328 131.732 87.1118 121.844 87.6836 109.639C82.8212 105.501 80.6434 99.9754 79.9007 93.7791C75.9823 92.782 74.4485 92.9268 70.5714 90.5319C69.7307 90.0127 68.4591 88.5475 67.7786 88.2706C66.5704 87.7794 64.9384 87.6368 63.5816 87.1938C59.1038 85.7313 56.9526 83.4744 53.8911 80.3453ZM81.1236 81.5775C77.9665 81.8387 72.7326 83.2851 71.0504 86.2345C73.7792 88.905 77.694 89.9239 81.4277 89.8761L82.417 89.8534C86.526 89.345 89.698 87.4266 92.635 84.6068C88.7185 82.3798 85.7038 81.4432 81.1236 81.5775ZM131.856 132.232C131.672 133.45 131.421 135.143 131.124 136.328C131.534 136.736 131.947 137.169 132.395 137.533C138.012 136.092 140.527 140.282 139.279 145.321L140.17 146.309C145.361 145.686 148.179 147.837 147.115 153.384C147.757 154.09 148.289 154.691 148.891 155.438L152.479 155.529C153.058 155.548 153.669 155.577 154.246 155.575C149.747 151.305 144.784 145.771 140.477 141.174C137.772 138.286 134.749 134.91 131.856 132.232Z" fill="#0076F6"/>
<path d="M116.143 40.8602C120.762 41.093 125.742 39.6984 129.504 37.0017C130.133 36.5508 130.756 36.0943 131.505 35.8756C132.749 35.9881 133.238 37.0378 133.476 38.1537C135.159 46.0451 133.801 51.9718 129.763 58.6128C130.313 59.4287 131.843 61.09 131.3 62.0139C130.263 63.7781 126.665 66.1606 125.009 67.0554C118.981 70.3144 113.707 70.2982 107.425 68.4267C106.456 69.3489 105.448 70.2639 104.465 71.1737C120.548 70.6447 130.05 85.36 126.655 100.506C126.299 102.203 127.676 103.409 128.754 104.51C136.873 112.8 144.725 121.45 152.747 129.819L159.446 136.812C160.318 137.714 163.587 140.763 163.662 141.771C163.939 145.479 164.637 153.189 164.214 156.818C162.983 158.96 161.183 159.76 158.791 159.59C155.857 159.381 152.625 159.61 149.725 159.351C145.757 155.984 145.308 155.612 146.09 151.161L145.076 149.982C143.809 150.068 142.234 150.286 141.02 150.274C139.832 149.318 138.208 147.782 137.535 146.427C137.681 145.103 138.124 143.944 138.556 142.692C138.113 142.213 137.695 141.663 137.289 141.149C135.783 141.241 133.238 142.188 132.228 140.728C131.708 139.977 129.583 138.303 129.656 137.443C129.879 134.816 130.51 132.069 131.006 129.459C129.697 127.764 127.203 125.44 125.66 123.812L120.034 117.887C116.789 114.49 116.418 112.641 111.918 114.213C106.15 116.228 100.14 115.704 94.626 113.161L93.2612 112.515C89.7422 134.013 65.7504 145.312 46.7356 134.876C22.1079 121.358 26.4974 85.2694 54.2658 77.5082C52.8421 74.6237 49 61.4643 53.2881 61.6194C62.3724 61.9486 71.9132 70.0925 73.4867 79.0994C77.328 67.4082 89.3382 63.5506 98.8889 71.4346C100.785 69.4963 102.709 67.7955 104.603 65.7718C101.869 61.1972 101.848 54.2054 103.734 49.3016C105.433 44.8852 105.861 43.0812 109.988 44.6715C111.98 42.1845 113.048 38.484 116.143 40.8602ZM130.218 40.8541C125.007 43.9426 120.761 44.7356 114.8 44.416C112.614 47.5365 112.122 49.6235 108.408 47.8925C106.118 52.6255 105.121 58.0912 107.277 63.093C111.265 59.7646 114.83 55.6367 118.855 52.3393C119.551 51.7692 120.49 52.0776 121.125 52.5718C122.305 54.1285 121.312 54.9467 120.169 56.0558L113.21 62.6862C112.296 63.5461 110.994 64.7013 110.175 65.5797C116.758 66.5808 121.782 65.8653 127.104 61.1714C125.059 58.9806 124.968 58.6334 126.8 56.2405C129.42 52.8192 131.543 45.0276 130.218 40.8541ZM55.0497 65.4793C54.6881 74.3532 60.7356 83.6388 69.9988 84.7854C70.1088 84.7989 70.2132 84.7847 70.3208 84.7622C71.6307 76.2372 63.3523 66.7253 55.0497 65.4793ZM88.5836 70.7674C82.9405 71.4781 79.3781 74.3303 77.1147 79.5829C79.8797 78.6352 81.3616 78.1963 84.3937 78.279C86.5718 78.1943 89.0028 78.4361 91.0763 79.1305C92.8687 77.3424 94.5918 76.0763 96.3293 74.1149C93.7562 71.6188 92.0156 71.2236 88.5836 70.7674ZM104.739 74.9553C102.77 74.9753 101.426 75.1864 99.5848 75.9365C109.492 78.6121 111.833 91.466 102.851 96.7505C97.7202 99.7689 90.4614 98.1777 86.8539 93.5277C86.4966 93.6116 86.1459 93.6976 85.7849 93.7657C87.0316 104.703 95.3608 112.817 106.677 111.671C110.84 111.25 114.502 108.142 118.625 111.27C119.631 112.101 120.812 113.471 121.729 114.437L137.793 131.01C139.844 133.089 142.674 135.675 144.368 138.025C145.586 138.937 148.462 142.166 149.639 143.409L160.567 154.993C160.477 151.083 160.195 146.661 160.23 142.825C158.562 141.212 156.861 139.376 155.249 137.69L145.527 127.353C142.057 123.627 138.402 120.035 134.967 116.263C131.703 112.679 124.215 106.419 123.259 101.926C122.718 99.3819 123.608 97.7158 123.804 95.1715C124.61 84.7334 116.505 75.1262 105.908 74.8932C105.572 74.8857 105.071 74.8974 104.739 74.9553ZM97.0104 79.2823C96.2075 79.7914 96.0398 79.8743 95.4576 80.6525L95.5704 80.7419C97.24 82.0538 101.233 83.2763 98.7319 86.0406C96.4206 88.5949 93.7215 90.5687 90.74 92.2747C92.0317 93.3156 93.0054 93.917 94.6398 94.3418C107.251 97.0309 107.767 79.1496 97.0104 79.2823ZM56.1386 80.5885C54.2337 81.2588 52.1947 81.8799 50.3545 82.6853C37.5887 88.2465 31.0168 103.889 35.8207 116.948C40.6198 129.995 54.1759 137.31 67.722 134.586C79.3804 131.975 89.3594 122.087 89.9311 109.882C85.0688 105.744 82.8909 100.219 82.1482 94.0223C78.2299 93.0252 76.6961 93.1699 72.819 90.775C71.9783 90.2558 70.7067 88.7907 70.0262 88.5138C68.818 88.0225 67.1859 87.88 65.8291 87.437C61.3513 85.9745 59.2002 83.7175 56.1386 80.5885ZM83.3711 81.8206C80.214 82.0818 74.9801 83.5283 73.298 86.4777C76.0267 89.1481 79.9416 90.1671 83.6752 90.1193L84.6646 90.0966C88.7736 89.5882 91.9456 87.6697 94.8826 84.8499C90.966 82.623 87.9514 81.6864 83.3711 81.8206ZM134.103 132.476C133.92 133.693 133.669 135.386 133.372 136.571C133.781 136.979 134.195 137.413 134.643 137.777C140.26 136.335 142.775 140.525 141.526 145.564L142.418 146.552C147.609 145.929 150.427 148.081 149.362 153.627C150.005 154.333 150.537 154.935 151.139 155.681L154.726 155.773C155.306 155.791 155.916 155.82 156.493 155.818C151.995 151.548 147.032 146.015 142.724 141.417C140.019 138.529 136.997 135.153 134.103 132.476Z" fill="#0076F6"/>
<path d="M54.4352 125.538C48.8961 126.134 43.9231 122.126 43.3266 116.587C42.7302 111.048 46.7365 106.074 52.2756 105.477C57.8158 104.88 62.7914 108.887 63.3878 114.428C63.9842 119.968 59.9757 124.943 54.4352 125.538ZM53.3047 109.028C49.7306 109.075 46.8684 112.006 46.9074 115.58C46.9464 119.154 49.8717 122.022 53.4463 121.991C57.0307 121.959 59.9087 119.023 59.8696 115.439C59.8305 111.854 56.8892 108.982 53.3047 109.028Z" fill="#0076F6"/>
</svg>
