<svg width="80" height="80" viewBox="0 0 80 80" fill="none" xmlns="http://www.w3.org/2000/svg">
<circle cx="40" cy="40" r="40" fill="white"/>
<path d="M46.3214 18.8536C48.0525 18.9409 49.919 18.4182 51.3288 17.4075C51.5646 17.2385 51.7981 17.0674 52.079 16.9854C52.545 17.0276 52.7284 17.421 52.8176 17.8393C53.4484 20.7969 52.9394 23.0182 51.4261 25.5072C51.632 25.8131 52.2055 26.4357 52.002 26.782C51.6135 27.4432 50.2647 28.3362 49.6443 28.6715C47.3851 29.893 45.4081 29.8869 43.0539 29.1855C42.6907 29.5311 42.313 29.8741 41.9445 30.215C47.9722 30.0168 51.5334 35.532 50.2612 41.2085C50.1277 41.8446 50.6438 42.2968 51.0478 42.7094C54.0907 45.8163 57.0336 49.0586 60.0404 52.1951L62.5512 54.8159C62.8777 55.1542 64.1033 56.297 64.1314 56.6746C64.235 58.0645 64.4968 60.954 64.3381 62.314C63.8767 63.1169 63.202 63.417 62.3055 63.3532C61.2061 63.2748 59.9944 63.3607 58.9076 63.2634C57.4203 62.0016 57.2523 61.8623 57.5454 60.1939L57.1652 59.752C56.6902 59.7842 56.0999 59.8659 55.645 59.8617C55.1999 59.5031 54.591 58.9275 54.3389 58.4198C54.3938 57.9234 54.5598 57.4889 54.7214 57.02C54.5555 56.8405 54.3989 56.6341 54.2466 56.4414C53.6822 56.4761 52.7284 56.8308 52.3497 56.2838C52.1549 56.0023 51.3586 55.3749 51.3859 55.0525C51.4696 54.068 51.706 53.0383 51.892 52.0601C51.4011 51.4251 50.4665 50.5538 49.888 49.9436L47.7796 47.7228C46.5634 46.45 46.4244 45.7569 44.7377 46.3461C42.5759 47.1014 40.3236 46.9048 38.2568 45.9519L37.7452 45.7097C36.4263 53.7671 27.4343 58.0018 20.3076 54.0903C11.0773 49.024 12.7224 35.498 23.1299 32.5892C22.5963 31.5081 21.1563 26.576 22.7635 26.6341C26.1682 26.7575 29.7441 29.8098 30.3338 33.1856C31.7735 28.8037 36.2749 27.3579 39.8545 30.3128C40.5651 29.5863 41.2861 28.9489 41.9963 28.1904C40.9713 26.4759 40.9635 23.8554 41.6704 22.0174C42.3071 20.3622 42.4677 19.6861 44.0145 20.2821C44.761 19.35 45.1612 17.963 46.3214 18.8536ZM51.5964 18.8513C49.6434 20.0089 48.0522 20.3061 45.8179 20.1863C44.9986 21.3559 44.8141 22.1381 43.4224 21.4893C42.5641 23.2632 42.1903 25.3118 42.9985 27.1864C44.4929 25.9389 45.829 24.3918 47.3378 23.156C47.5986 22.9423 47.9503 23.0579 48.1885 23.2431C48.6307 23.8265 48.2585 24.1332 47.8302 24.5489L45.222 27.0339C44.8795 27.3562 44.3915 27.7892 44.0846 28.1184C46.5519 28.4936 48.4346 28.2255 50.4293 26.4662C49.6628 25.6451 49.6288 25.515 50.3155 24.6181C51.2976 23.3358 52.093 20.4155 51.5964 18.8513ZM23.4237 28.0808C23.2882 31.4067 25.5548 34.8869 29.0266 35.3167C29.0678 35.3217 29.1069 35.3164 29.1473 35.3079C29.6382 32.1128 26.5355 28.5478 23.4237 28.0808ZM35.9921 30.0628C33.8771 30.3291 32.5419 31.3981 31.6936 33.3668C32.7299 33.0116 33.2853 32.8471 34.4217 32.8781C35.2381 32.8463 36.1492 32.9369 36.9263 33.1972C37.5981 32.527 38.2439 32.0525 38.8952 31.3174C37.9308 30.3819 37.2784 30.2337 35.9921 30.0628ZM42.0472 31.6324C41.309 31.6398 40.8053 31.719 40.1153 32.0001C43.8286 33.0029 44.7058 37.8205 41.3394 39.8011C39.4165 40.9324 36.6959 40.336 35.3438 38.5932C35.2099 38.6247 35.0784 38.6569 34.9432 38.6824C35.4104 42.7816 38.5322 45.8227 42.7733 45.3934C44.3338 45.2355 45.7063 44.0708 47.2515 45.2431C47.6284 45.5543 48.0711 46.0679 48.415 46.43L54.4355 52.6414C55.2041 53.4207 56.265 54.3899 56.8998 55.2708C57.3564 55.6125 58.4342 56.8225 58.8756 57.2885L62.9712 61.6302C62.9376 60.1649 62.8316 58.5075 62.8449 57.0696C62.2197 56.4651 61.5821 55.7768 60.9781 55.145L57.3344 51.2709C56.0337 49.8742 54.6638 48.5279 53.3765 47.1144C52.1532 45.7711 49.3464 43.4248 48.9884 41.741C48.7856 40.7874 49.119 40.1629 49.1926 39.2093C49.4946 35.2972 46.457 31.6964 42.4853 31.6091C42.3593 31.6063 42.1715 31.6107 42.0472 31.6324ZM39.1504 33.2541C38.8495 33.4449 38.7866 33.476 38.5685 33.7677L38.6107 33.8012C39.2365 34.2928 40.7331 34.751 39.7956 35.7871C38.9294 36.7444 37.9178 37.4842 36.8003 38.1236C37.2844 38.5137 37.6494 38.7392 38.2619 38.8984C42.9887 39.9062 43.182 33.2044 39.1504 33.2541ZM23.8318 33.7437C23.1179 33.9949 22.3537 34.2277 21.6639 34.5295C16.8794 36.6139 14.4163 42.4768 16.2167 47.3711C18.0154 52.2609 23.0962 55.0027 28.1733 53.9816C32.5428 53.003 36.2829 49.2971 36.4971 44.7228C34.6747 43.1718 33.8585 41.1009 33.5801 38.7786C32.1116 38.4049 31.5367 38.4591 30.0836 37.5615C29.7685 37.3669 29.2919 36.8178 29.0368 36.714C28.584 36.5299 27.9723 36.4765 27.4638 36.3105C25.7855 35.7623 24.9793 34.9164 23.8318 33.7437ZM34.0385 34.2055C32.8552 34.3034 30.8936 34.8455 30.2631 35.9509C31.2858 36.9518 32.7531 37.3337 34.1525 37.3158L34.5233 37.3073C36.0633 37.1167 37.2521 36.3977 38.3529 35.3408C36.885 34.5062 35.7551 34.1552 34.0385 34.2055ZM53.0528 53.1908C52.9839 53.647 52.89 54.2815 52.7785 54.7258C52.9321 54.8788 53.087 55.0411 53.2549 55.1775C55.3601 54.6372 56.3027 56.2078 55.8348 58.0964L56.169 58.4666C58.1145 58.233 59.1708 59.0394 58.7717 61.1182C59.0125 61.3829 59.2119 61.6083 59.4376 61.888L60.7822 61.9224C60.9993 61.9294 61.2282 61.9402 61.4444 61.9393C59.7584 60.3389 57.8983 58.2651 56.2839 56.542C55.27 55.4597 54.1371 54.1943 53.0528 53.1908Z" fill="#0076F6"/>
<path d="M47.1638 18.9454C48.8949 19.0327 50.7614 18.51 52.1712 17.4993C52.407 17.3303 52.6405 17.1592 52.9214 17.0772C53.3874 17.1194 53.5708 17.5128 53.66 17.9311C54.2908 20.8887 53.7818 23.11 52.2685 25.599C52.4744 25.9048 53.0479 26.5275 52.8444 26.8738C52.4559 27.535 51.1071 28.428 50.4868 28.7633C48.2275 29.9848 46.2505 29.9787 43.8963 29.2773C43.5331 29.6229 43.1554 29.9659 42.7869 30.3068C48.8146 30.1086 52.3758 35.6238 51.1036 41.3003C50.9701 41.9364 51.4862 42.3886 51.8902 42.8012C54.9331 45.9081 57.876 49.1504 60.8828 52.2869L63.3936 54.9077C63.7201 55.246 64.9457 56.3888 64.9738 56.7664C65.0774 58.1563 65.3392 61.0458 65.1805 62.4058C64.7191 63.2087 64.0444 63.5088 63.1479 63.445C62.0485 63.3666 60.8368 63.4525 59.7501 63.3552C58.2627 62.0934 58.0947 61.9541 58.3878 60.2856L58.0076 59.8438C57.5326 59.876 56.9424 59.9577 56.4874 59.9535C56.0423 59.5949 55.4334 59.0193 55.1813 58.5116C55.2362 58.0152 55.4022 57.5807 55.5638 57.1118C55.3979 56.9323 55.2413 56.7259 55.089 56.5332C54.5246 56.5679 53.5709 56.9226 53.1921 56.3756C52.9973 56.0941 52.201 55.4667 52.2283 55.1443C52.312 54.1598 52.5484 53.1301 52.7344 52.1519C52.2435 51.5169 51.3089 50.6456 50.7305 50.0354L48.622 47.8146C47.4059 46.5418 47.2669 45.8487 45.5801 46.4379C43.4183 47.1932 41.166 46.9965 39.0992 46.0437L38.5876 45.8015C37.2687 53.8589 28.2767 58.0936 21.15 54.1821C11.9197 49.1158 13.5648 35.5898 23.9723 32.681C23.4387 31.5999 21.9987 26.6678 23.6059 26.7259C27.0106 26.8493 30.5865 29.9016 31.1762 33.2774C32.6159 28.8955 37.1173 27.4497 40.6969 30.4046C41.4075 29.6781 42.1285 29.0407 42.8387 28.2822C41.8137 26.5677 41.8059 23.9472 42.5128 22.1092C43.1495 20.454 43.3101 19.7779 44.8569 20.3739C45.6034 19.4418 46.0036 18.0548 47.1638 18.9454ZM52.4388 18.9431C50.4858 20.1007 48.8946 20.3979 46.6603 20.2781C45.841 21.4477 45.6565 22.2299 44.2648 21.5811C43.4065 23.355 43.0327 25.4035 43.8409 27.2782C45.3353 26.0307 46.6714 24.4836 48.1802 23.2478C48.441 23.0341 48.7927 23.1497 49.0309 23.3349C49.4731 23.9183 49.1009 24.225 48.6726 24.6407L46.0644 27.1257C45.722 27.448 45.234 27.881 44.927 28.2102C47.3944 28.5854 49.277 28.3173 51.2717 26.558C50.5052 25.7369 50.4712 25.6068 51.1579 24.7099C52.14 23.4276 52.9354 20.5073 52.4388 18.9431ZM24.2661 28.1726C24.1306 31.4985 26.3972 34.9787 29.869 35.4085C29.9102 35.4135 29.9493 35.4082 29.9897 35.3997C30.4806 32.2046 27.3779 28.6396 24.2661 28.1726ZM36.8345 30.1546C34.7195 30.4209 33.3843 31.4899 32.536 33.4586C33.5723 33.1034 34.1277 32.9389 35.2642 32.9699C36.0805 32.9381 36.9916 33.0287 37.7687 33.289C38.4406 32.6188 39.0863 32.1443 39.7376 31.4092C38.7732 30.4737 38.1208 30.3255 36.8345 30.1546ZM42.8896 31.7242C42.1514 31.7316 41.6477 31.8108 40.9577 32.0919C44.671 33.0947 45.5482 37.9123 42.1818 39.8929C40.2589 41.0242 37.5383 40.4278 36.1862 38.685C36.0523 38.7165 35.9208 38.7487 35.7856 38.7742C36.2528 42.8734 39.3746 45.9145 43.6157 45.4852C45.1762 45.3273 46.5487 44.1626 48.0939 45.3349C48.4708 45.6461 48.9136 46.1597 49.2574 46.5218L55.2779 52.7332C56.0465 53.5125 57.1074 54.4816 57.7422 55.3626C58.1988 55.7043 59.2767 56.9143 59.718 57.3803L63.8136 61.722C63.78 60.2567 63.674 58.5993 63.6873 57.1614C63.0621 56.5569 62.4245 55.8686 61.8205 55.2368L58.1768 51.3627C56.8761 49.966 55.5062 48.6197 54.2189 47.2062C52.9956 45.8629 50.1889 43.5166 49.8308 41.8328C49.628 40.8792 49.9615 40.2547 50.035 39.3011C50.337 35.389 47.2994 31.7882 43.3277 31.7009C43.2017 31.6981 43.014 31.7025 42.8896 31.7242ZM39.9928 33.3459C39.6919 33.5367 39.629 33.5678 39.4109 33.8594L39.4531 33.8929C40.0789 34.3846 41.5755 34.8428 40.638 35.8789C39.7718 36.8362 38.7602 37.576 37.6427 38.2154C38.1268 38.6055 38.4918 38.8309 39.1043 38.9902C43.8311 39.998 44.0244 33.2962 39.9928 33.3459ZM24.6742 33.8355C23.9603 34.0867 23.1961 34.3195 22.5064 34.6213C17.7218 36.7057 15.2587 42.5685 17.0592 47.4629C18.8578 52.3527 23.9386 55.0945 29.0157 54.0734C33.3852 53.0948 37.1253 49.3889 37.3395 44.8146C35.5172 43.2636 34.7009 41.1927 34.4225 38.8704C32.954 38.4967 32.3791 38.5509 30.926 37.6533C30.6109 37.4587 30.1343 36.9096 29.8793 36.8058C29.4264 36.6217 28.8147 36.5683 28.3062 36.4023C26.6279 35.8541 25.8217 35.0082 24.6742 33.8355ZM34.8809 34.2973C33.6976 34.3952 31.736 34.9373 31.1055 36.0427C32.1282 37.0436 33.5955 37.4255 34.9949 37.4076L35.3657 37.3991C36.9057 37.2085 38.0946 36.4895 39.1953 35.4326C37.7274 34.598 36.5975 34.247 34.8809 34.2973ZM53.8952 53.2826C53.8263 53.7388 53.7324 54.3733 53.6209 54.8176C53.7745 54.9706 53.9294 55.1329 54.0973 55.2693C56.2025 54.729 57.1451 56.2996 56.6772 58.1882L57.0114 58.5584C58.9569 58.3248 60.0132 59.1312 59.6141 61.21C59.8549 61.4747 60.0543 61.7001 60.28 61.9798L61.6246 62.0142C61.8417 62.0212 62.0706 62.032 62.2868 62.0311C60.6008 60.4307 58.7407 58.3569 57.1263 56.6338C56.1124 55.5515 54.9795 54.2861 53.8952 53.2826Z" fill="#0076F6"/>
<path d="M24.0358 50.6825C21.9598 50.9056 20.0959 49.4037 19.8723 47.3276C19.6488 45.2516 21.1503 43.3874 23.2264 43.1636C25.3028 42.9397 27.1677 44.4416 27.3912 46.5182C27.6147 48.5947 26.1124 50.4592 24.0358 50.6825ZM23.6121 44.4946C22.2725 44.512 21.1998 45.6105 21.2144 46.9502C21.229 48.2898 22.3254 49.3647 23.6651 49.3528C25.0086 49.3409 26.0873 48.2406 26.0726 46.8971C26.0579 45.5536 24.9555 44.4772 23.6121 44.4946Z" fill="#0076F6"/>
</svg>
