<svg width="216" height="197" viewBox="0 0 216 197" fill="none" xmlns="http://www.w3.org/2000/svg">
<path d="M134.128 8.60338C141.527 8.7869 149.438 6.35193 155.345 1.88349C156.333 1.1363 157.311 0.380549 158.501 0C160.495 0.129025 161.321 1.78834 161.748 3.56402C164.763 16.1207 162.833 25.6582 156.645 36.4482C157.558 37.7306 160.074 40.3261 159.243 41.8265C157.657 44.6916 151.997 48.6504 149.385 50.1495C139.875 55.6101 131.435 55.8006 121.309 53.0635C119.796 54.5783 118.221 56.0832 116.685 57.5791C142.394 56.0748 158.198 79.2282 153.387 103.598C152.887 106.328 155.14 108.202 156.909 109.919C170.237 122.849 183.153 136.368 196.331 149.428L207.335 160.342C208.766 161.75 214.122 166.494 214.283 168.103C214.877 174.025 216.31 186.33 215.782 192.154C213.9 195.631 211.053 196.986 207.218 196.811C202.517 196.597 197.354 197.095 192.704 196.799C186.217 191.575 185.485 190.999 186.554 183.845L184.883 182C182.859 182.189 180.348 182.603 178.406 182.634C176.466 181.152 173.804 178.762 172.673 176.622C172.853 174.497 173.514 172.624 174.153 170.605C173.425 169.857 172.734 168.993 172.063 168.187C169.657 168.397 165.625 170.015 163.949 167.721C163.086 166.541 159.619 163.95 159.7 162.571C159.95 158.359 160.846 153.938 161.533 149.742C159.369 147.085 155.284 143.468 152.748 140.927L143.506 131.677C138.175 126.376 137.506 123.433 130.37 126.132C121.225 129.592 111.589 128.999 102.662 125.157L100.452 124.179C95.7025 158.717 57.7807 177.776 26.9328 161.857C-13.0221 141.239 -7.47658 83.3215 36.6315 69.7683C34.2357 65.2116 27.5502 44.3156 34.4171 44.3881C48.9643 44.5428 64.5622 57.1816 67.4481 71.5271C73.1149 52.6654 92.1718 46.0027 107.775 58.2252C110.729 55.0462 113.737 52.2464 116.685 48.9311C112.123 41.7247 111.804 30.5392 114.62 22.6163C117.157 15.4811 117.769 12.5776 124.437 14.9531C127.522 10.8925 129.079 4.92848 134.128 8.60338ZM156.645 8.01764C148.435 13.1721 141.675 14.6144 132.125 14.3474C128.755 19.4288 128.053 22.7886 122.041 20.1709C118.571 27.8367 117.199 36.6218 120.854 44.5362C127.097 39.0476 132.631 32.2974 138.937 26.8577C140.027 25.9173 141.541 26.3722 142.577 27.1364C144.529 29.5786 142.974 30.9289 141.191 32.7497L130.329 43.6421C128.902 45.0557 126.866 46.9568 125.592 48.3959C136.165 49.7279 144.172 48.3776 152.495 40.6505C149.133 37.2287 148.974 36.6772 151.807 32.7739C155.859 27.1932 158.936 14.6405 156.645 8.01764ZM37.3938 50.4915C37.1784 64.7032 47.2335 79.3117 62.1005 80.7671C62.2767 80.784 62.4438 80.7573 62.6147 80.7168C64.3612 67.024 50.7277 52.1453 37.3938 50.4915ZM91.2601 57.5791C82.2609 58.947 76.6783 63.6564 73.2722 72.1523C77.6566 70.5227 80.01 69.7604 84.8643 69.7683C88.3454 69.5438 92.2449 69.8309 95.5903 70.8569C98.3848 67.9233 101.09 65.827 103.789 62.618C99.5707 58.7297 96.7696 58.1684 91.2601 57.5791ZM117.279 63.6179C114.128 63.7308 111.987 64.1237 109.072 65.3989C125.032 69.2742 129.303 89.7427 115.149 98.565C107.065 103.604 95.386 101.356 89.4242 94.0638C88.8564 94.2126 88.2984 94.3647 87.7241 94.488C90.1662 111.935 103.824 124.576 121.881 122.28C128.525 121.436 134.257 116.314 140.98 121.149C142.623 122.436 144.569 124.581 146.077 126.089L172.454 151.946C175.82 155.188 180.455 159.209 183.261 162.901C185.247 164.309 189.98 169.357 191.915 171.298L209.872 189.383C209.568 183.132 208.935 176.07 208.835 169.93C206.1 167.418 203.303 164.549 200.656 161.919L184.679 145.779C178.974 139.959 172.979 134.362 167.33 128.469C161.962 122.868 149.724 113.158 148.012 106.011C147.042 101.962 148.397 99.26 148.607 95.1811C149.47 78.4489 136.11 63.4097 119.146 63.471C118.608 63.473 117.807 63.5121 117.279 63.6179ZM105.091 70.8569C103.826 71.7046 103.561 71.8443 102.662 73.113L102.846 73.2514C105.571 75.2817 112.01 77.0745 108.121 81.5992C104.528 85.7806 100.291 89.049 95.5903 91.9003C97.6996 93.5123 99.2822 94.4351 101.914 95.0473C122.201 98.8339 122.295 70.2049 105.091 70.8569ZM39.7544 74.6199C36.734 75.7705 33.4969 76.8474 30.5862 78.2114C10.39 87.6308 0.516008 112.927 8.7361 133.622C16.9481 154.298 38.9353 165.447 60.4963 160.534C79.0415 155.88 94.6015 139.652 95.0166 120.103C87.0682 113.681 83.358 104.931 81.9163 95.0473C75.6067 93.6128 73.1587 93.9072 66.8575 90.2341C65.4916 89.4379 63.3966 87.1459 62.2969 86.7308C60.3436 85.9947 57.7272 85.8328 55.5383 85.1802C48.3143 83.0232 44.7803 79.5003 39.7544 74.6199ZM83.373 75.4762C78.3327 76.0237 70.0182 78.552 67.4481 83.3391C71.9232 87.5003 78.2283 88.97 84.1992 88.7409L85.7812 88.6639C92.3343 87.6824 97.3308 84.4832 101.914 79.8521C95.557 76.4493 90.6955 75.0742 83.373 75.4762ZM166.612 154.442C166.368 156.397 166.036 159.115 165.608 161.024C166.281 161.66 166.96 162.336 167.692 162.901C176.619 160.364 180.814 166.965 179.023 175.078L180.49 176.622C188.769 175.412 193.366 178.739 191.89 187.656C192.947 188.76 193.822 189.7 194.816 190.87H200.56C201.488 190.876 202.465 190.897 203.388 190.87C196.017 184.222 187.85 175.573 180.77 168.394C176.324 163.885 171.35 158.607 166.612 154.442Z" fill="white"/>
</svg>
