<svg width="59" height="48" viewBox="0 0 59 48" fill="none" xmlns="http://www.w3.org/2000/svg">
<path d="M35.2659 3.01872C36.9987 3.0617 38.8512 2.49146 40.2347 1.44501C40.466 1.27001 40.6951 1.09302 40.9738 1.00391C41.4407 1.03413 41.6342 1.42272 41.734 1.83856C42.4402 4.77912 41.9882 7.01271 40.5391 9.53961C40.7528 9.84006 41.342 10.4478 41.1474 10.7992C40.776 11.4701 39.4504 12.3973 38.8388 12.7484C36.6116 14.0273 34.635 14.0717 32.2637 13.4307C31.9094 13.7856 31.5406 14.1381 31.181 14.4884C37.2016 14.136 40.9027 19.5584 39.7762 25.2655C39.6589 25.9049 40.1865 26.3437 40.6009 26.7458C43.7222 29.7739 46.747 32.9399 49.8331 35.9984L52.4101 38.5542C52.7452 38.884 53.9995 39.995 54.0373 40.3718C54.1764 41.7586 54.512 44.6405 54.3881 46.0042C53.9475 46.8186 53.2807 47.1358 52.3828 47.095C51.2818 47.0447 50.0727 47.1616 48.9838 47.0921C47.4646 45.8688 47.2931 45.7338 47.5435 44.0584L47.1521 43.6264C46.6781 43.6707 46.0901 43.7675 45.6352 43.775C45.1811 43.4278 44.5577 42.868 44.2926 42.3669C44.3348 41.8693 44.4897 41.4307 44.6392 40.9578C44.4688 40.7826 44.3069 40.5803 44.1498 40.3915C43.5864 40.4406 42.6421 40.8196 42.2495 40.2825C42.0475 40.006 41.2354 39.3992 41.2545 39.0763C41.313 38.0899 41.523 37.0546 41.6839 36.0719C41.1769 35.4496 40.2204 34.6025 39.6265 34.0074L37.462 31.8412C36.2136 30.5998 36.0569 29.9105 34.3858 30.5427C32.2441 31.353 29.9874 31.2141 27.8969 30.3144L27.3794 30.0853C26.267 38.1738 17.3861 42.6372 10.1618 38.9091C0.804861 34.0806 2.10356 20.517 12.4333 17.3429C11.8722 16.2758 10.3065 11.3821 11.9146 11.3992C15.3215 11.4354 18.9742 14.3953 19.6501 17.7548C20.9773 13.3377 25.4402 11.7772 29.0942 14.6395C29.786 13.8952 30.4904 13.2395 31.181 12.4631C30.1125 10.7753 30.0377 8.15587 30.6973 6.30045C31.2915 4.62945 31.4347 3.94946 32.9963 4.50573C33.7187 3.55481 34.0833 2.15811 35.2659 3.01872ZM40.5391 2.88154C38.6164 4.08869 37.0333 4.42649 34.7966 4.36388C34.0075 5.554 33.8431 6.34069 32.4352 5.7277C31.6226 7.52298 31.3013 9.58039 32.1572 11.4338C33.6192 10.1485 34.9153 8.56769 36.392 7.29366C36.6473 7.07341 37.0018 7.17996 37.2446 7.35903C37.7016 7.93095 37.3374 8.24705 36.9198 8.67356L34.376 11.2245C34.042 11.5554 33.5652 12.0007 33.2668 12.3377C35.7429 12.6497 37.6181 12.3335 39.5672 10.5238C38.7799 9.72252 38.7426 9.5933 39.4061 8.67919C40.3551 7.37221 41.0756 4.43254 40.5391 2.88154ZM12.6117 12.8285C12.5613 16.1568 14.9161 19.5779 18.3978 19.9187C18.4391 19.9227 18.4781 19.9163 18.5182 19.9069C18.9273 16.7003 15.7344 13.2157 12.6117 12.8285ZM25.2266 14.4884C23.1191 14.8087 21.8117 15.9115 21.0141 17.9012C22.0409 17.5196 22.592 17.341 23.7288 17.3429C24.544 17.2903 25.4572 17.3576 26.2407 17.5979C26.8952 16.9108 27.5286 16.4199 28.1608 15.6683C27.1728 14.7578 26.5169 14.6264 25.2266 14.4884ZM31.3199 15.9026C30.5821 15.929 30.0806 16.021 29.398 16.3196C33.1358 17.2271 34.1359 22.0207 30.8212 24.0868C28.9279 25.2669 26.1929 24.7403 24.7967 23.0326C24.6637 23.0675 24.5331 23.1031 24.3985 23.132C24.9704 27.2179 28.1689 30.1782 32.3977 29.6406C33.9537 29.4428 35.2959 28.2434 36.8705 29.3758C37.2553 29.6772 37.7111 30.1794 38.0641 30.5326L44.2414 36.5879C45.0298 37.3473 46.1151 38.289 46.7722 39.1534C47.2374 39.4834 48.3458 40.6654 48.799 41.1199L53.0043 45.3555C52.9331 43.8915 52.7848 42.2374 52.7614 40.7996C52.1209 40.2113 51.4659 39.5396 50.8459 38.9234L47.1043 35.1438C45.7684 33.7808 44.3645 32.47 43.0414 31.0898C41.7841 29.7783 38.9183 27.5045 38.5174 25.8304C38.2903 24.8823 38.6076 24.2495 38.6568 23.2943C38.8586 19.3757 35.7299 15.8538 31.7573 15.8681C31.6312 15.8685 31.4437 15.8777 31.3199 15.9026ZM28.4655 17.5979C28.1696 17.7963 28.1075 17.829 27.8969 18.1262L27.94 18.1586C28.5781 18.6341 30.086 19.0539 29.1753 20.1135C28.3338 21.0927 27.3415 21.8581 26.2407 22.5259C26.7347 22.9035 27.1053 23.1195 27.7217 23.263C32.4727 24.1497 32.4945 17.4451 28.4655 17.5979ZM13.1645 18.4791C12.4572 18.7485 11.6992 19.0007 11.0174 19.3201C6.28773 21.5261 3.97535 27.4501 5.9004 32.2968C7.82356 37.139 12.9728 39.7499 18.0221 38.5994C22.3651 37.5093 26.0092 33.709 26.1064 29.1307C24.245 27.6268 23.376 25.5775 23.0384 23.263C21.5607 22.927 20.9874 22.9959 19.5118 22.1358C19.1919 21.9493 18.7014 21.4125 18.4438 21.3153C17.9864 21.1429 17.3735 21.1051 16.8609 20.9521C15.1692 20.4471 14.3416 19.6221 13.1645 18.4791ZM23.3796 18.6797C22.1992 18.8078 20.2521 19.3999 19.6501 20.5211C20.6981 21.4955 22.1747 21.8397 23.5731 21.786L23.9436 21.7681C25.4782 21.5382 26.6483 20.789 27.7217 19.7043C26.2329 18.9075 25.0944 18.5855 23.3796 18.6797ZM42.8732 37.1725C42.8161 37.6303 42.7383 38.2671 42.6382 38.714C42.7957 38.863 42.9548 39.0213 43.1261 39.1534C45.2168 38.5594 46.1993 40.1055 45.7798 42.0054L46.1233 42.3669C48.0623 42.0836 49.1388 42.8628 48.793 44.9511C49.0405 45.2095 49.2456 45.4298 49.4784 45.7036H50.8234C51.0406 45.7051 51.2697 45.71 51.4858 45.7036C49.7595 44.1468 47.8469 42.1213 46.189 40.44C45.1477 39.384 43.9828 38.148 42.8732 37.1725Z" fill="#0076F6"/>
<path d="M36.1101 3.08904C37.8429 3.13202 39.6954 2.56177 41.0789 1.51532C41.3103 1.34032 41.5393 1.16334 41.8181 1.07422C42.2849 1.10444 42.4784 1.49303 42.5783 1.90887C43.2845 4.84943 42.8324 7.08303 41.3833 9.60993C41.597 9.91037 42.1862 10.5181 41.9916 10.8695C41.6202 11.5405 40.2947 12.4676 39.6831 12.8187C37.4558 14.0976 35.4793 14.1421 33.1079 13.5011C32.7537 13.8559 32.3848 14.2084 32.0252 14.5587C38.0458 14.2063 41.7469 19.6287 40.6204 25.3358C40.5031 25.9752 41.0307 26.414 41.4451 26.8161C44.5665 29.8442 47.5913 33.0102 50.6773 36.0688L53.2543 38.6245C53.5894 38.9543 54.8438 40.0654 54.8815 40.4422C55.0206 41.8289 55.3562 44.7108 55.2324 46.0745C54.7917 46.8889 54.1249 47.2061 53.227 47.1653C52.126 47.1151 50.9169 47.2319 49.828 47.1624C48.3089 45.9391 48.1374 45.8041 48.3877 44.1287L47.9964 43.6967C47.5223 43.7411 46.9343 43.8379 46.4794 43.8453C46.0253 43.4981 45.4019 42.9383 45.1369 42.4372C45.179 41.9396 45.3339 41.501 45.4835 41.0281C45.313 40.8529 45.1512 40.6506 44.9941 40.4618C44.4307 40.511 43.4863 40.8899 43.0937 40.3528C42.8917 40.0763 42.0797 39.4695 42.0987 39.1466C42.1572 38.1602 42.3672 37.1249 42.5281 36.1422C42.0212 35.5199 41.0646 34.6728 40.4707 34.0777L38.3062 31.9115C37.0579 30.6702 36.9012 29.9808 35.23 30.613C33.0883 31.4233 30.8316 31.2844 28.7411 30.3847L28.2236 30.1556C27.1112 38.2441 18.2304 42.7075 11.006 38.9795C1.6491 34.1509 2.9478 20.5873 13.2775 17.4132C12.7164 16.3461 11.1508 11.4524 12.7589 11.4695C16.1657 11.5057 19.8185 14.4656 20.4943 17.8252C21.8215 13.408 26.2844 11.8475 29.9384 14.7099C30.6302 13.9655 31.3346 13.3098 32.0252 12.5334C30.9567 10.8456 30.8819 8.22619 31.5416 6.37076C32.1357 4.69976 32.279 4.01977 33.8405 4.57604C34.563 3.62512 34.9275 2.22842 36.1101 3.08904ZM41.3833 2.95186C39.4606 4.15901 37.8775 4.49681 35.6409 4.43419C34.8517 5.62431 34.6874 6.411 33.2795 5.79802C32.4668 7.59329 32.1455 9.65071 33.0014 11.5041C34.4634 10.2188 35.7595 8.638 37.2362 7.36398C37.4915 7.14372 37.8461 7.25028 38.0888 7.42934C38.5458 8.00126 38.1817 8.31736 37.7641 8.74387L35.2203 11.2948C34.8862 11.6257 34.4094 12.071 34.111 12.408C36.5871 12.72 38.4623 12.4038 40.4114 10.5941C39.6242 9.79283 39.5868 9.66362 40.2503 8.7495C41.1993 7.44252 41.9198 4.50285 41.3833 2.95186ZM13.4559 12.8988C13.4055 16.2271 15.7603 19.6482 19.242 19.989C19.2833 19.993 19.3223 19.9867 19.3624 19.9772C19.7715 16.7706 16.5786 13.286 13.4559 12.8988ZM26.0709 14.5587C23.9634 14.879 22.656 15.9818 21.8583 17.9715C22.8851 17.5899 23.4362 17.4113 24.573 17.4132C25.3883 17.3606 26.3014 17.4279 27.085 17.6682C27.7394 16.9811 28.3729 16.4902 29.0051 15.7386C28.0171 14.8281 27.3611 14.6967 26.0709 14.5587ZM32.1642 15.9729C31.4264 15.9993 30.9249 16.0913 30.2423 16.3899C33.98 17.2975 34.9801 22.091 31.6654 24.1571C29.7721 25.3372 27.0372 24.8106 25.6409 23.1029C25.5079 23.1378 25.3773 23.1734 25.2427 23.2023C25.8147 27.2882 29.0132 30.2485 33.242 29.7109C34.7979 29.5131 36.1402 28.3137 37.7148 29.4461C38.0995 29.7475 38.5553 30.2497 38.9083 30.6029L45.0857 36.6583C45.874 37.4176 46.9593 38.3593 47.6164 39.2237C48.0816 39.5537 49.19 40.7357 49.6432 41.1903L53.8485 45.4258C53.7774 43.9619 53.6291 42.3077 53.6056 40.8699C52.9651 40.2816 52.3102 39.6099 51.6902 38.9937L47.9486 35.2141C46.6126 33.8511 45.2087 32.5403 43.8856 31.1601C42.6284 29.8486 39.7626 27.5748 39.3616 25.9007C39.1345 24.9526 39.4518 24.3198 39.501 23.3646C39.7029 19.446 36.5741 15.9242 32.6015 15.9384C32.4755 15.9388 32.2879 15.948 32.1642 15.9729ZM29.3098 17.6682C29.0139 17.8666 28.9518 17.8993 28.7411 18.1965L28.7843 18.2289C29.4224 18.7044 30.9302 19.1242 30.0196 20.1838C29.1781 21.1631 28.1857 21.9285 27.085 22.5962C27.5789 22.9738 27.9495 23.1898 28.5659 23.3333C33.3169 24.22 33.3388 17.5154 29.3098 17.6682ZM14.0087 18.5494C13.3014 18.8188 12.5434 19.071 11.8616 19.3904C7.13197 21.5964 4.81959 27.5204 6.74464 32.3671C8.6678 37.2093 13.817 39.8203 18.8663 38.6697C23.2093 37.5797 26.8535 33.7793 26.9507 29.201C25.0892 27.6971 24.2203 25.6478 23.8826 23.3333C22.4049 22.9973 21.8316 23.0663 20.356 22.2061C20.0361 22.0196 19.5456 21.4829 19.288 21.3856C18.8306 21.2132 18.2178 21.1754 17.7051 21.0224C16.0134 20.5174 15.1858 19.6924 14.0087 18.5494ZM24.2238 18.75C23.0435 18.8781 21.0963 19.4702 20.4943 20.5914C21.5423 21.5658 23.0189 21.9101 24.4173 21.8564L24.7878 21.8384C26.3225 21.6085 27.4925 20.8593 28.5659 19.7746C27.0771 18.9778 25.9387 18.6558 24.2238 18.75ZM43.7174 37.2428C43.6603 37.7006 43.5826 38.3374 43.4825 38.7843C43.64 38.9333 43.799 39.0916 43.9704 39.2237C46.061 38.6297 47.0435 40.1758 46.624 42.0757L46.9676 42.4372C48.9065 42.1539 49.983 42.9331 49.6373 45.0214C49.8847 45.2798 50.0899 45.5001 50.3226 45.7739H51.6676C51.8849 45.7754 52.1139 45.7803 52.3301 45.7739C50.6037 44.2171 48.6912 42.1916 47.0332 40.5103C45.9919 39.4543 44.8271 38.2183 43.7174 37.2428Z" fill="#0076F6"/>
<path d="M13.8012 35.4065C11.7315 35.6826 9.82984 34.2289 9.55328 32.1592C9.27673 30.0896 10.7301 28.1876 12.7997 27.9108C14.8698 27.6338 16.7724 29.0876 17.049 31.1578C17.3255 33.2278 15.8714 35.1302 13.8012 35.4065ZM13.2194 29.2315C11.8807 29.2831 10.8364 30.4087 10.8853 31.7476C10.9341 33.0864 12.0577 34.1329 13.3966 34.0867C14.7393 34.0405 15.7895 32.913 15.7405 31.5703C15.6915 30.2276 14.5619 29.1797 13.2194 29.2315Z" fill="#0076F6"/>
</svg>
