<svg width="100" height="86" viewBox="0 0 100 86" fill="none" xmlns="http://www.w3.org/2000/svg">
<path d="M70.0877 9.49047C69.0949 10.4446 65.4996 15.7912 65.5946 16.2139C65.6251 16.3935 65.809 16.524 66.0411 16.5307C66.4868 16.5704 70.952 10.4985 71.1848 9.55802C71.4066 8.68875 70.9161 8.65665 70.0877 9.49047Z" fill="white"/>
<path d="M81.679 24.5432C79.8008 24.9087 75.4601 26.6862 75.106 27.1853C74.2862 28.341 76.183 27.9492 80.4822 26.0633C82.8525 25.0598 83.5495 24.1328 81.679 24.5432Z" fill="white"/>
<path d="M48.9491 7.84066C48.5392 8.41853 50.2217 16.9563 50.8259 17.3849C51.6664 17.9811 51.6637 17.15 50.7944 12.3084C50.093 8.45466 49.5081 7.05265 48.9491 7.84066Z" fill="white"/>
<path d="M62.992 25.2261C59.8643 25.8502 55.1888 27.1533 52.6576 28.1611L51.7901 28.4934L47.2906 24.038C41.8183 18.6161 38.6424 15.9684 37.369 15.8153C36.2566 15.658 35.2529 16.6833 35.2235 18.0049C35.1712 19.1919 36.6023 24.0766 38.1958 28.2868C38.868 30.0667 39.491 31.6932 39.5292 31.9177C39.586 32.1159 38.2585 32.5957 36.549 33.0019C30.1707 34.479 25.1751 36.3446 24.2993 37.5792C24.113 37.8419 24.0021 38.2765 24.0555 38.5908C24.2769 39.8929 26.4094 40.616 35.2733 42.4815C38.5063 43.1561 41.3463 43.8282 41.609 44.0145C41.8454 44.1822 42.1785 45.3267 42.3211 46.5729C43.19 53.5859 44.8018 59.9413 46.0602 61.2288C47.8219 63.0313 48.6088 62.0891 51.2854 55.1431C53.4421 49.4868 53.166 49.7647 56.25 50.6494C58.5807 51.3157 62.9406 51.9604 64.9696 51.9388C66.2574 51.9047 66.7809 51.7233 67.1908 51.1454C67.9362 50.0947 67.5404 49.2612 64.4617 45.4189C59.695 39.392 59.3865 38.9362 59.6303 37.9246C59.7632 37.3476 61.2123 35.1378 63.6796 31.7155C67.3173 26.7544 67.5333 26.3943 67.3213 25.6912C67.1815 25.2761 66.9255 24.8576 66.7942 24.7644C66.6366 24.6526 64.9151 24.8529 62.992 25.2261ZM61.2516 32.2438L57.5436 37.4709L57.6489 38.7697C57.7355 40.0947 58.7398 41.5178 63.5022 47.3837C64.4945 48.601 65.2395 49.7217 65.1802 49.9165C65.1209 50.1114 63.2037 49.9754 60.9187 49.5785C58.6151 49.2079 55.8582 48.7526 54.8093 48.5614C52.1761 48.1544 51.7805 48.545 50.0659 53.133C47.9464 58.7368 47.6865 59.3816 47.3908 59.4087C46.852 59.5003 46.3441 57.6002 45.1322 51.0151C44.4579 47.457 43.7507 44.1124 43.5693 43.5888C43.0184 42.2503 42.055 41.8829 35.0941 40.3406C28.8974 38.9457 27.2223 38.4682 27.4646 38.1267C27.7813 37.6802 31.8951 36.334 36.2419 35.2716C39.3467 34.5127 41.1156 33.9117 41.4137 33.4914C41.9541 32.7297 41.7107 31.5699 39.8746 26.4769C39.0998 24.2294 38.2148 21.4694 37.9452 20.291L37.4517 18.2036L38.8625 19.1649C39.6242 19.7052 42.5044 22.3801 45.2312 25.1042C47.9581 27.8283 50.4213 30.089 50.6874 30.1592C50.9085 30.2371 54.1557 29.5003 57.8476 28.5261C61.5582 27.5257 64.6444 26.7931 64.7495 26.8676C64.8808 26.9608 63.2826 29.3807 61.2516 32.2438Z" fill="white"/>
<path d="M76.8129 39.808C71.566 39.2448 70.7875 39.2848 71.2578 40.0133C71.7205 40.6969 81.7423 41.7649 82.1522 41.1871C82.5622 40.6092 81.2134 40.2841 76.8129 39.808Z" fill="white"/>
<path d="M27.7374 4.6789C27.5782 5.23724 31.1834 10.9535 32.0239 11.5497C33.2847 12.4441 32.8761 11.1276 30.9346 8.13147C28.9176 4.96333 27.9296 3.90706 27.7374 4.6789Z" fill="white"/>
<path d="M25.8287 24.2905C22.1568 23.3441 20.9918 23.1495 20.581 23.4503C20.3794 23.6232 20.4438 23.8663 20.7328 24.0713C21.5131 24.5854 28.946 26.186 29.3382 25.9114C29.8498 25.5241 28.8898 25.0405 25.8287 24.2905Z" fill="white"/>
<path d="M69.5099 55.0013C69.21 54.8675 68.8881 54.876 68.7949 55.0074C68.4968 55.4277 69.9881 56.9989 72.931 59.3629C75.4721 61.4024 75.911 61.6743 76.1719 61.3066C76.47 60.8863 75.9175 60.218 73.2221 57.9505C72.2799 57.1637 71.1724 56.2201 70.7631 55.8508C70.3801 55.5001 69.8022 55.0902 69.5099 55.0013Z" fill="white"/>
<path d="M57.5633 60.8214C57.1906 61.3467 59.4917 70.1259 60.0958 70.5544C60.2534 70.6662 60.4593 70.6543 60.5338 70.5493C60.7574 70.2341 60.0841 66.953 59.1829 63.8261C58.4368 61.2042 57.936 60.2961 57.5633 60.8214Z" fill="white"/>
<path d="M18.371 39.2574C17.1392 39.2127 12.472 39.6135 11.9934 39.7873C11.4885 39.9424 11.0785 40.5203 11.3412 40.7066C11.7615 41.0048 19.1981 40.3179 19.4589 39.9502C19.813 39.4511 19.5503 39.2648 18.371 39.2574Z" fill="white"/>
<path d="M30.8776 56.0252C27.9479 59.9881 27.0663 61.7319 28.099 61.5563C29.1504 61.3544 33.5756 54.5039 32.919 54.0381C32.63 53.8331 32.1786 54.3026 30.8776 56.0252Z" fill="white"/>
<path d="M45.9799 65.2386C45.763 65.3216 45.2788 67.2288 44.8819 69.5138C44.1948 73.4881 44.1061 75.0046 44.5789 75.34C45.0517 75.6754 45.4073 74.5062 45.9826 70.6895C46.6393 66.5355 46.6228 64.9445 45.9799 65.2386Z" fill="white"/>
</svg>
