<svg width="274" height="113" viewBox="0 0 274 113" fill="none" xmlns="http://www.w3.org/2000/svg">
<rect y="56.794" width="268" height="57" rx="12" transform="rotate(-12.2348 0 56.794)" fill="white"/>
<path d="M19.7779 85.6955L20.0065 83.182C19.9089 83.2604 19.8275 83.3258 19.7625 83.3781C19.5998 83.5089 19.4729 83.5842 19.3817 83.6039C19.4085 83.9037 19.4385 84.1742 19.4717 84.4153C19.5049 84.6564 19.5289 84.8995 19.5439 85.1446C19.5731 85.3674 19.6043 85.5994 19.6375 85.8405C19.6469 85.9722 19.6564 86.1038 19.6658 86.2355C19.6975 86.3814 19.72 86.5294 19.7334 86.6793L19.7858 86.5246L19.7779 85.6955ZM23.3903 70.6441C23.556 70.7037 23.794 70.6998 24.1041 70.6326C24.4103 70.5471 24.7216 70.4414 25.0381 70.3154C25.3546 70.1895 25.6255 70.0735 25.8508 69.9673C26.0904 69.839 26.2153 69.7546 26.2256 69.7141C25.6562 69.8185 25.1656 69.9344 24.7539 70.0619C24.3565 70.1672 23.902 70.3612 23.3903 70.6441ZM21.1979 72.9532C21.0875 73.149 20.9482 73.4753 20.7798 73.932C20.6114 74.3887 20.4628 74.9366 20.334 75.5758C20.2052 76.2149 20.1124 76.9322 20.0557 77.7276C19.995 78.5048 20.0212 79.33 20.1341 80.2033C20.1247 80.0716 20.1379 79.8682 20.1737 79.593C20.2095 79.3178 20.2466 79.0042 20.2848 78.6521C20.3374 78.2778 20.3951 77.8833 20.4579 77.4685C20.5351 77.0316 20.6051 76.6057 20.668 76.191C20.8168 75.2037 20.9934 74.1244 21.1979 72.9532ZM34.8736 84.2271C34.7622 85.0344 34.5607 85.823 34.2692 86.5929C33.9778 87.3628 33.6118 88.0534 33.1713 88.6646C32.419 89.6873 31.5395 90.4319 30.5328 90.8985C29.5301 91.3833 28.5327 91.6283 27.5406 91.6333C26.5484 91.6383 25.6242 91.4281 24.7679 91.0025C23.9156 90.5953 23.2767 90.0271 22.8512 89.298C22.4257 88.569 22.2854 87.7017 22.4302 86.6961C22.5711 85.6724 23.1316 84.5576 24.1117 83.3518C23.971 83.9363 23.8974 84.4775 23.8908 84.9755C23.8985 85.4514 23.9569 85.8971 24.0661 86.3127C24.1896 86.7062 24.3588 87.0897 24.5735 87.4634C24.7843 87.8188 25.0335 88.1754 25.3212 88.5332C26.5307 88.3855 27.5909 87.9455 28.5017 87.2132C29.4125 86.4809 30.1053 85.624 30.5801 84.6424C31.0731 83.6569 31.3092 82.6315 31.2883 81.5664C31.2675 80.5013 30.9412 79.5693 30.3096 78.7703C30.1748 78.5895 29.893 78.4787 29.4639 78.438C29.0349 78.3973 28.5916 78.3789 28.134 78.3826C27.6034 78.4021 27.0129 78.4538 26.3626 78.5375C26.2309 78.5469 26.0973 78.5473 25.9617 78.5385C25.8443 78.5257 25.7289 78.5221 25.6155 78.5276C25.4981 78.5148 25.4173 78.4942 25.3729 78.4656C24.9867 78.3583 24.6969 78.2111 24.5035 78.0238C24.3283 77.8326 24.2079 77.6295 24.1422 77.4145C24.0947 77.1956 24.0746 76.9708 24.0819 76.74C24.0891 76.5092 24.0912 76.2987 24.0881 76.1083C24.4101 76.0958 24.7099 76.069 24.9875 76.0279L31.1289 77.1315C31.9179 77.2469 32.5816 77.5328 33.1198 77.9891C33.6541 78.4271 34.0694 78.9769 34.3657 79.6385C34.658 80.2818 34.8436 81.0056 34.9225 81.8098C34.9974 82.5958 34.9811 83.4016 34.8736 84.2271ZM21.2216 70.6846C21.266 70.7132 21.3104 70.7417 21.3548 70.7703C21.6428 70.6888 21.9398 70.6053 22.246 70.5198C22.6981 70.4026 23.1554 70.2653 23.6178 70.1077C24.0763 69.9319 24.5165 69.76 24.9385 69.5921C25.3748 69.402 25.7707 69.2016 26.1261 68.9908C25.7247 69.0778 25.298 69.1799 24.8459 69.297C24.3898 69.3959 23.9306 69.5242 23.4681 69.6817C23.02 69.8171 22.5778 69.9799 22.1415 70.17C21.8146 70.3363 21.508 70.5079 21.2216 70.6846ZM17.8209 72.3102C17.8537 71.8447 17.8864 71.3792 17.9192 70.9136C17.7844 70.7328 17.7893 70.5789 17.9337 70.4521L17.9611 70.4462C17.9635 70.3692 17.975 70.2903 17.9957 70.2094C18.0829 70.1714 18.2412 70.1085 18.4704 70.0205C18.6957 69.9144 18.9464 69.7932 19.2225 69.6569C19.5168 69.5167 19.8293 69.3725 20.1601 69.2244C20.4909 69.0763 20.8034 68.9321 21.0977 68.7919L24.0201 67.4706C24.7546 67.1585 25.4658 66.8706 26.1535 66.6068C26.7357 66.3851 27.3199 66.1724 27.9061 65.9689C28.5106 65.7615 28.9861 65.6201 29.3327 65.545C29.4239 65.5252 29.6063 65.4856 29.88 65.4263C30.1679 65.3448 30.4649 65.2613 30.7711 65.1758C31.0773 65.0903 31.36 65.029 31.6194 64.9918C31.893 64.9325 32.0612 64.9151 32.1238 64.9397C32.5219 65.1017 32.9651 65.3399 33.4534 65.6542C33.9418 65.9685 34.4036 66.3363 34.8387 66.7577C34.9616 66.8839 35.0487 67.0655 35.1002 67.3027C35.1516 67.5398 35.2399 67.683 35.3652 67.7323C34.0344 67.8489 32.7749 68.0743 31.5867 68.4084C30.4128 68.7202 29.3328 69.069 28.3468 69.4547C27.3791 69.8365 26.5156 70.2147 25.7565 70.5894C24.9934 70.9459 24.3683 71.2343 23.8812 71.4545C23.4124 71.6707 23.0035 71.8549 22.6544 72.007C22.4656 72.1052 22.2931 72.1904 22.1368 72.2625C21.8572 73.0871 21.6422 73.9455 21.4919 74.8376C21.282 75.8955 21.1053 76.9748 20.962 78.0755C20.8369 79.1722 20.7158 80.2872 20.5986 81.4205C20.4997 82.5497 20.3675 83.6576 20.2019 84.744L20.2177 86.4023L21.0682 88.7392C20.8803 88.6653 20.6626 88.6743 20.4151 88.7662C20.1677 88.8581 19.9305 88.9095 19.7037 88.9205C19.4951 88.9275 19.3215 88.8314 19.1828 88.6323C19.0258 88.4371 18.946 88.0247 18.9431 87.395C18.8662 87.3926 18.8233 87.4592 18.8145 87.5948C18.7875 87.7343 18.7664 87.9013 18.7512 88.0956C18.7361 88.2899 18.7118 88.4861 18.6784 88.6844C18.6267 88.8866 18.5541 89.036 18.4604 89.1327C18.2466 88.587 18.08 87.9069 17.9607 87.0923C17.8191 86.2635 17.7205 85.3681 17.6647 84.406C17.5906 83.448 17.5563 82.4526 17.5616 81.4201C17.5447 80.3732 17.5428 79.3517 17.556 78.3556C17.5998 76.5316 17.6825 74.6227 17.8041 72.629L17.7981 72.6016C17.6975 72.4898 17.7051 72.3926 17.8209 72.3102ZM40.3664 86.732C39.8873 86.9887 39.3915 87.1248 38.8792 87.1404C38.3851 87.152 37.9136 87.0919 37.4648 86.96C37.0017 86.8503 36.5652 86.6871 36.1553 86.4704C35.7454 86.2537 35.3942 86.0433 35.1017 85.8394C34.9575 85.5268 34.9975 84.8305 35.2217 83.7505C35.4237 82.6562 35.7504 81.3438 36.2017 79.8134C36.6307 78.2687 37.1475 76.6 37.752 74.8072C38.3525 72.9961 38.9629 71.2306 39.5832 69.5108C40.2177 67.7688 40.8233 66.1572 41.3998 64.676C41.9946 63.1909 42.5008 62.0019 42.9184 61.1092C43.3523 60.996 43.8441 60.8416 44.3938 60.646C44.9578 60.4282 45.5336 60.2651 46.1214 60.1568C46.7091 60.0484 47.2781 60.0301 47.8285 60.1018C48.3971 60.1695 48.9061 60.4029 49.3556 60.8021C49.8156 62.3067 50.13 63.757 50.299 65.1529C50.4863 66.5449 50.5997 67.9051 50.6395 69.2335C50.6792 70.5619 50.6694 71.8819 50.6101 73.1936C50.565 74.4832 50.533 75.7889 50.514 77.111C50.5094 78.4108 50.54 79.7412 50.6059 81.1021C50.6861 82.4409 50.8825 83.8309 51.195 85.272C50.5373 85.5865 49.8826 85.7381 49.2307 85.7266C48.5827 85.7334 47.9828 85.6534 47.4309 85.4866C46.883 85.338 46.4132 85.1533 46.0215 84.9327C45.6338 84.7302 45.3786 84.5659 45.2557 84.4398C45.2194 84.0083 45.2086 83.5618 45.2231 83.1002C45.2519 82.6165 45.2918 82.1399 45.3428 81.6704C45.3938 81.2009 45.4357 80.7334 45.4684 80.2679C45.5012 79.8024 45.5086 79.3519 45.4906 78.9165C45.1765 78.9655 44.8188 79.0336 44.4174 79.1206C44.0343 79.2037 43.6461 79.307 43.2526 79.4305C42.8775 79.55 42.5225 79.6747 42.1878 79.8046C41.853 79.9345 41.5841 80.0597 41.381 80.1801C41.0284 81.0206 40.7488 81.8452 40.5422 82.6541C40.3666 83.3416 40.2354 84.0576 40.1485 84.8023C40.0617 85.5469 40.1343 86.1902 40.3664 86.732ZM46.1259 78.8074C46.0885 78.9874 46.0717 79.3062 46.0754 79.7638C46.0934 80.1993 46.1154 80.6529 46.1413 81.1248C46.1855 81.5927 46.2491 82.0182 46.3322 82.4013C46.4113 82.7662 46.5024 82.9661 46.6055 83.001C46.6415 82.2865 46.6839 81.733 46.7324 81.3404C46.781 80.9479 46.8161 80.6251 46.8376 80.3721C46.8735 80.097 46.9081 79.8602 46.9415 79.662C46.971 79.4455 46.9885 79.1743 46.9943 78.8483L46.1259 78.8074ZM48.8229 82.9213C48.7768 81.6516 48.7894 80.3882 48.8606 79.1312C48.8639 78.8822 48.7704 78.7592 48.5801 78.7623C48.3897 78.7654 48.2643 78.9358 48.2039 79.2737C48.1474 79.6297 48.1222 79.9981 48.1283 80.3788C48.1305 80.7412 48.1601 81.0977 48.217 81.4483C48.2882 81.7766 48.3717 82.0737 48.4675 82.3394C48.5634 82.6051 48.6818 82.7991 48.8229 82.9213ZM46.8365 73.4962C46.858 73.2432 46.8507 72.901 46.8144 72.4696C46.7742 72.0199 46.7217 71.6015 46.6568 71.2145C46.5881 70.8092 46.5097 70.4919 46.4218 70.2626C46.3521 70.0294 46.2986 70.0028 46.2612 70.1829C46.3689 70.5033 46.4179 70.8174 46.4083 71.1251C46.4129 71.4106 46.3881 71.6929 46.3341 71.9721C46.2982 72.2472 46.2644 72.5315 46.2325 72.825C46.1967 73.1001 46.1902 73.3785 46.213 73.6601L46.8365 73.4962ZM44.062 64.9296C43.9018 64.9834 43.6943 65.1717 43.4396 65.4943C43.1809 65.7987 42.9178 66.1709 42.6503 66.611C42.3788 67.0327 42.1244 67.489 41.887 67.9798C41.6457 68.4523 41.448 68.9059 41.2939 69.3404C41.1541 69.7527 41.0774 70.1036 41.0637 70.3931C41.0501 70.6825 41.1424 70.844 41.3407 70.8774C41.3622 70.6244 41.4929 70.2141 41.7327 69.6464C41.9907 69.0747 42.2813 68.4769 42.6044 67.8529C42.9275 67.2289 43.2292 66.6382 43.5095 66.0808C43.7897 65.5235 43.9739 65.1397 44.062 64.9296ZM41.1518 68.0246C41.0597 68.2165 40.9137 68.4678 40.7137 68.7786C40.5319 69.0854 40.3703 69.3974 40.229 69.7146C40.1059 70.0278 40.0447 70.318 40.0453 70.5853C40.0642 70.8486 40.2466 71.0287 40.5923 71.1256C40.5004 70.8781 40.5113 70.532 40.6249 70.0871C40.7386 69.6423 40.8582 69.2248 40.9837 68.8346C41.1274 68.4406 41.2362 68.1496 41.3101 67.9616C41.38 67.7555 41.3272 67.7765 41.1518 68.0246ZM44.8398 65.4772C44.6714 65.9339 44.4331 66.5968 44.1249 67.4659C43.8311 68.3127 43.5308 69.2182 43.2242 70.1825C42.9318 71.1245 42.6629 72.0423 42.4174 72.936C42.1901 73.8257 42.0771 74.5378 42.0784 75.0723C42.387 74.9099 42.665 74.7828 42.9125 74.6909C43.16 74.599 43.4004 74.5183 43.6336 74.4486C43.881 74.3567 44.1487 74.27 44.4367 74.1885C44.7246 74.107 45.0724 73.9933 45.4801 73.8476C45.4812 73.2362 45.4836 72.5862 45.4871 71.8979C45.5049 71.1873 45.4934 70.4735 45.4525 69.7566C45.4299 69.0356 45.3688 68.3135 45.2693 67.5902C45.188 66.8629 45.0448 66.1586 44.8398 65.4772ZM55.8769 70.1033C58.066 69.6286 59.8865 68.9951 61.3382 68.2028C62.786 67.3923 63.9443 66.5681 64.8131 65.7302C65.6963 64.8702 66.3149 64.0676 66.669 63.3223C67.0413 62.573 67.2264 62.0172 67.2242 61.6547C67.2045 61.5635 67.1632 61.5056 67.1006 61.481C67.034 61.4381 66.9603 61.4064 66.8794 61.3857C66.8167 61.3611 66.7521 61.3273 66.6855 61.2845C66.6372 61.2377 66.6194 61.1556 66.6321 61.0382C66.5044 61.0659 66.3779 61.0551 66.2527 61.0059C66.1274 60.9566 65.9839 60.9114 65.8221 60.87C65.6746 60.8065 65.4946 60.7692 65.2821 60.7579C65.0695 60.7467 64.8233 60.8001 64.5432 60.9182C63.1933 61.2109 62.0201 61.5703 61.0238 61.9965C60.0235 62.4044 59.1954 62.8132 58.5393 63.2228C57.8832 63.6325 57.4024 64.0137 57.0969 64.3665C56.8057 64.697 56.6739 64.9262 56.7016 65.0539C56.7332 65.1998 56.661 65.2632 56.485 65.2441C56.3272 65.221 56.1341 65.1674 55.9057 65.0832C55.6734 64.9808 55.4502 64.8764 55.2361 64.77C55.0363 64.6414 54.9214 64.5517 54.8913 64.5009C54.8651 64.4684 54.8644 64.4208 54.889 64.3582C54.9318 64.2916 54.9402 64.242 54.914 64.2095C54.6866 63.9532 54.4206 63.6957 54.1162 63.437C53.8261 63.1561 53.657 62.7726 53.6089 62.2864C53.6897 62.3071 53.8452 62.1874 54.0754 61.9274C54.3055 61.6674 54.7375 61.3254 55.3714 60.9014C56.0013 60.4592 56.8866 59.9617 58.0274 59.4087C59.1641 58.8375 60.6907 58.2582 62.6071 57.6707C63.2392 57.5909 63.876 57.577 64.5176 57.6289C65.1592 57.6808 65.7579 57.7992 66.3137 57.9843C66.8878 58.1654 67.3917 58.4191 67.8253 58.7453C68.2772 59.0675 68.6204 59.461 68.8549 59.9259C68.8628 59.9624 68.7851 59.9124 68.6218 59.7759C68.4728 59.6172 68.2338 59.4398 67.9048 59.2438C67.5757 59.0477 67.1424 58.8551 66.6048 58.6661C66.0815 58.4549 65.4404 58.317 64.6814 58.2523C65.4602 58.4082 66.1151 58.6099 66.6464 58.8577C67.1958 59.1014 67.6501 59.3467 68.0093 59.5936C68.3644 59.8221 68.6368 60.021 68.8262 60.19C69.0339 60.355 69.1762 60.4388 69.2531 60.4412C69.3569 60.7434 69.4658 61.0254 69.5798 61.2872C69.7082 61.5268 69.802 61.7834 69.8614 62.057C70.0038 62.7137 69.9273 63.418 69.6319 64.1696C69.3507 64.8991 68.9939 65.5877 68.5613 66.2354C68.147 66.8792 67.7423 67.4349 67.3471 67.9026C66.9662 68.3481 66.7471 68.6153 66.69 68.7041C66.8216 68.6946 67.0389 68.7717 67.3418 68.9352C67.6407 69.0805 67.9606 69.2785 68.3015 69.5293C68.6423 69.7801 68.9729 70.0713 69.2931 70.403C69.6134 70.7347 69.8495 71.075 70.0016 71.424C69.9225 71.0592 69.7633 70.7213 69.5239 70.4102C69.2989 70.077 69.0654 69.7934 68.8237 69.5593C68.5336 69.2784 68.222 69.0308 67.889 68.8165C68.5091 69.1214 69.0478 69.4916 69.5051 69.9273C69.9808 70.3589 70.2854 70.971 70.419 71.7633C70.4269 71.7998 70.4447 71.8819 70.4724 72.0096C70.5144 72.1151 70.5512 72.2408 70.5828 72.3867C70.6327 72.5287 70.6624 72.6655 70.6718 72.7972C70.6995 72.9249 70.7102 73.0181 70.7038 73.0768C70.9174 74.0619 70.7991 75.0139 70.349 75.9328C69.9171 76.8478 69.2405 77.6917 68.3194 78.4644C67.4165 79.2332 66.3308 79.908 65.0624 80.4886C63.7939 81.0693 62.4483 81.5139 61.0253 81.8224C60.1497 82.0123 59.2547 82.0249 58.3404 81.8603C57.4261 81.6957 56.5839 81.4676 55.814 81.1761C55.0584 80.8625 54.4142 80.5342 53.8814 80.1913C53.3447 79.8302 53.009 79.5592 52.8742 79.3783C52.834 78.9286 52.8323 78.4801 52.869 78.0328C52.924 77.5816 53.0122 77.1518 53.1338 76.7435C53.2514 76.3168 53.386 75.9247 53.5377 75.5671C53.7036 75.1874 53.8723 74.8643 54.0438 74.5979C54.1572 74.5924 54.2543 74.6 54.3352 74.6206C54.4161 74.6413 54.4878 74.6639 54.5505 74.6886C54.652 74.6283 54.7072 74.5304 54.716 74.3948C54.7391 74.237 54.7863 74.1026 54.8578 73.9916C55.0698 74.8815 55.4517 75.6296 56.0034 76.2358C56.2348 76.5103 56.519 76.7639 56.8559 76.9964C57.1889 77.2107 57.5818 77.3929 58.0345 77.5431C58.5016 77.671 59.0246 77.7486 59.6035 77.7759C60.1785 77.7849 60.8419 77.7174 61.5938 77.5735C61.7033 77.5497 61.7794 77.5046 61.8223 77.438C61.8652 77.3714 61.9282 77.31 62.0115 77.2537C62.6604 77.0748 63.3215 76.8646 63.9949 76.623C64.6684 76.3815 65.2915 76.084 65.8643 75.7306C66.4513 75.355 66.9528 74.8929 67.3687 74.3443C67.8028 73.7918 68.0775 73.121 68.1929 72.332C67.9591 72.1344 67.569 72.0088 67.0226 71.9554C66.4904 71.8798 65.8842 71.8585 65.2037 71.8914C64.5193 71.9061 63.7971 71.9672 63.0373 72.0747C62.2735 72.1639 61.5431 72.2745 60.8459 72.4066C60.1669 72.5347 59.5558 72.6673 59.0125 72.8042C58.4874 72.9371 58.1031 73.0587 57.8596 73.1688C57.7033 73.2409 57.5154 73.167 57.2958 72.9472C57.0945 72.7235 56.8924 72.4521 56.6895 72.1332C56.501 71.7921 56.3144 71.4601 56.1298 71.1372C55.9594 70.7921 55.82 70.5454 55.7114 70.3971C55.7178 70.3384 55.7602 70.3578 55.8387 70.4554C55.9354 70.5491 56.0471 70.6681 56.1739 70.8125C56.319 70.9529 56.4549 71.0954 56.5818 71.2398C56.7046 71.3659 56.8045 71.4302 56.8814 71.4326C56.8513 71.3819 56.782 71.2823 56.6734 71.1339C56.5831 70.9816 56.4745 70.8333 56.3477 70.6889L55.8769 70.1033ZM82.3061 78.4685C81.9546 78.6975 81.4402 78.9237 80.7628 79.147C80.0894 79.3885 79.3434 79.5598 78.5249 79.6609C77.7064 79.762 76.8641 79.7536 75.9982 79.6358C75.1362 79.5362 74.3369 79.2415 73.6004 78.7518C72.8639 78.2621 72.2409 77.5472 71.7314 76.6072C71.222 75.6671 70.9054 74.4274 70.7817 72.888C70.6958 71.8752 70.7067 70.7363 70.8144 69.4714C70.9182 68.1883 71.1041 66.8874 71.372 65.5686C71.6543 64.2277 72.0194 62.9165 72.4673 61.6352C72.9113 60.3356 73.4397 59.1609 74.0525 58.1112C74.6796 57.0393 75.3919 56.1399 76.1893 55.4131C76.9867 54.6863 77.8689 54.218 78.8357 54.0084C80.107 54.0574 81.2005 54.2119 82.1164 54.4717C83.0466 54.7093 83.82 55.105 84.4367 55.6589C85.0677 56.1906 85.5551 56.8967 85.8988 57.7772C86.2425 58.6577 86.4636 59.7653 86.5621 61.1001C86.7345 63.393 86.735 65.4653 86.5636 67.317C86.3921 69.1687 86.1002 70.8174 85.6878 72.2629C85.2937 73.7045 84.7993 74.9482 84.2048 75.9939C83.6245 77.0175 82.9916 77.8423 82.3061 78.4685ZM76.8357 61.4329C76.2882 61.9909 75.8878 62.4788 75.6346 62.8966C75.3957 63.2922 75.2665 63.7978 75.2472 64.4132C75.4788 64.2483 75.6641 64.0458 75.803 63.8056C75.938 63.5471 76.0527 63.2835 76.1472 63.0147C76.26 62.7419 76.3636 62.4711 76.4582 62.2023C76.5487 61.9153 76.6746 61.6588 76.8357 61.4329ZM75.6253 64.7036C75.7537 64.9432 75.9436 65.0262 76.195 64.9526C76.1618 64.7115 76.1853 64.4676 76.2656 64.221C76.3419 63.9561 76.4475 63.6945 76.5824 63.436C76.7174 63.1775 76.8615 62.9171 77.0147 62.6547C77.1679 62.3922 77.3028 62.1338 77.4195 61.8793C76.934 62.1947 76.5654 62.6088 76.3137 63.1218C76.0621 63.6348 75.8326 64.1621 75.6253 64.7036ZM75.9482 59.19C76.4735 58.6177 76.9544 58.0168 77.391 57.3873C77.8275 56.7578 78.2882 56.1518 78.773 55.5691C78.4407 55.6221 78.119 55.7682 77.808 56.0076C77.4931 56.2287 77.2102 56.5097 76.9594 56.8506C76.7086 57.1914 76.4951 57.572 76.3188 57.9922C76.1386 58.3942 76.015 58.7935 75.9482 59.19ZM82.3652 58.658C81.6757 59.2659 81.0826 59.8339 80.5859 60.3618C80.1074 60.8858 79.6713 61.4292 79.2776 61.9921C78.9022 62.551 78.5478 63.1626 78.2144 63.8271C77.8952 64.4693 77.5502 65.2126 77.1794 66.057L76.91 67.0609C76.7179 67.4082 76.5666 67.8994 76.456 68.5346C76.3637 69.1658 76.3328 69.8602 76.3633 70.6176C76.4082 71.3528 76.5136 72.1035 76.6798 72.8696C76.8602 73.6136 77.118 74.274 77.4532 74.8507C77.8066 75.4235 78.2457 75.8631 78.7706 76.1695C79.3137 76.472 79.9592 76.5421 80.7071 76.3799C81.3039 75.6966 81.8357 74.8459 82.3026 73.8278C82.7877 72.8058 83.1911 71.7156 83.5129 70.5571C83.8347 69.3986 84.0645 68.2122 84.2024 66.9981C84.3362 65.7658 84.3634 64.6138 84.2839 63.5424C84.2186 62.4487 84.0272 61.4779 83.7096 60.6299C83.4063 59.7597 82.9582 59.1025 82.3652 58.658ZM77.007 65.9225C77.2215 65.1502 77.4844 64.4247 77.7957 63.746C78.1212 63.045 78.482 62.3747 78.8781 61.7349C78.6701 62.0092 78.4317 62.3188 78.1626 62.6636C77.9079 62.9862 77.6773 63.3323 77.4709 63.7018C77.2788 64.049 77.1291 64.4157 77.0219 64.8019C76.9146 65.1881 76.9096 65.5616 77.007 65.9225ZM74.9795 75.731C74.9551 75.3542 74.9327 74.9866 74.9123 74.6282C74.8919 74.2697 74.9269 73.9469 75.0175 73.6599C74.9223 73.6614 74.8562 73.5325 74.819 73.2731C74.7779 72.9955 74.7484 72.639 74.7304 72.2036C74.7306 71.7643 74.7483 71.2734 74.7835 70.7309C74.8187 70.1885 74.861 69.6349 74.9105 69.0703C74.9599 68.5057 75.0244 67.9664 75.104 67.4525C75.1796 66.9204 75.2711 66.4613 75.3783 66.0751C75.192 66.0964 75.0638 66.2102 74.9939 66.4163C74.9201 66.6043 74.8593 66.8084 74.8116 67.0289C74.7782 67.2271 74.7388 67.398 74.6936 67.5416C74.6483 67.6851 74.5479 67.7068 74.3926 67.6068C74.3974 67.453 74.455 67.2781 74.5653 67.0823C74.6717 66.8682 74.7618 66.6672 74.8357 66.4793C74.9095 66.2914 74.9398 66.1225 74.9264 65.9726C74.9129 65.8227 74.8051 65.7219 74.6029 65.6703C74.5291 65.8582 74.4341 66.213 74.3181 66.7348C74.202 67.2566 74.0966 67.8716 74.0019 68.5797C73.9214 69.2657 73.8508 69.9973 73.7901 70.7744C73.7437 71.5294 73.7481 72.2543 73.8033 72.949C73.8545 73.6256 73.9739 74.2204 74.1616 74.7336C74.3453 75.2286 74.618 75.561 74.9795 75.731ZM75.5754 71.476C75.5248 71.0668 75.5544 70.6306 75.6641 70.1675C75.7738 69.7044 75.8874 69.2596 76.005 68.833C76.1409 68.4024 76.239 68.0182 76.2995 67.6804C76.3559 67.3243 76.3057 67.0487 76.1488 66.8535C76.0479 67.181 75.9347 67.5398 75.8092 67.9299C75.6797 68.3018 75.5745 68.6971 75.4933 69.1158C75.4083 69.5163 75.3617 69.9179 75.3535 70.3208C75.3454 70.7237 75.4193 71.1088 75.5754 71.476ZM103.127 49.0563C103.358 49.3308 103.565 49.6679 103.747 50.0677C103.947 50.4636 104.118 50.8563 104.26 51.2457C104.402 51.6352 104.51 52.0032 104.586 52.3498C104.657 52.6782 104.679 52.9122 104.652 53.0518C104.625 53.1913 104.541 53.2 104.4 53.0778C104.259 52.9556 104.047 52.6386 103.764 52.127C103.711 52.0619 103.681 52.0111 103.673 51.9746C103.681 52.0111 103.711 52.0619 103.764 52.127C104.161 52.9004 104.374 53.7519 104.404 54.6814C104.433 55.6109 104.318 56.5336 104.058 57.4494C103.813 58.3431 103.451 59.1855 102.973 59.9768C102.495 60.768 101.947 61.4121 101.329 61.909C102.118 62.0244 102.782 62.3103 103.32 62.7666C103.855 63.2046 104.27 63.7544 104.566 64.416C104.859 65.0593 105.044 65.7831 105.123 66.5873C105.198 67.3733 105.182 68.1791 105.074 69.0046C104.963 69.8119 104.761 70.6005 104.47 71.3704C104.178 72.1403 103.812 72.8309 103.372 73.4421C102.62 74.4648 101.74 75.2094 100.733 75.676C99.7307 76.1608 98.7332 76.4058 97.7411 76.4108C96.749 76.4158 95.8248 76.2056 94.9685 75.7801C94.1161 75.3728 93.4772 74.8046 93.0517 74.0755C92.6262 73.3465 92.4859 72.4792 92.6308 71.4736C92.7717 70.4499 93.3322 69.3351 94.3122 68.1294C94.1716 68.7138 94.0979 69.255 94.0913 69.753C94.099 70.2289 94.1575 70.6746 94.2667 71.0903C94.3902 71.4837 94.5593 71.8672 94.774 72.2409C94.9848 72.5963 95.234 72.9529 95.5217 73.3107C96.7312 73.1631 97.7914 72.7231 98.7022 71.9907C99.6131 71.2584 100.306 70.4015 100.781 69.4199C101.274 68.4344 101.51 67.409 101.489 66.3439C101.468 65.2788 101.142 64.3468 100.51 63.5479C100.375 63.367 100.094 63.2562 99.6645 63.2155C99.2354 63.1748 98.7921 63.1564 98.3345 63.1601C97.804 63.1796 97.2135 63.2313 96.5631 63.315C96.4315 63.3245 96.2978 63.3248 96.1622 63.316C96.0449 63.3032 95.9295 63.2996 95.8161 63.3051C95.6987 63.2923 95.6178 63.2717 95.5734 63.2431C95.1872 63.1358 94.8974 62.9886 94.704 62.8013C94.5289 62.6101 94.4084 62.407 94.3427 62.192C94.2952 61.9731 94.2751 61.7483 94.2824 61.5175C94.2897 61.2867 94.2917 61.0762 94.2887 60.8858C95.4307 60.8674 96.3901 60.5352 97.1669 59.8893C97.9397 59.2251 98.5575 58.3748 99.0204 57.3385C99.4833 56.3022 99.8091 55.162 99.9977 53.9177C100.182 52.6553 100.265 51.4054 100.245 50.1682C98.8417 51.714 97.6255 53.372 96.596 55.1424C95.5847 56.9089 94.7196 58.7773 94.0009 60.7477C93.2964 62.6959 92.7271 64.7389 92.2929 66.8768C91.8588 69.0147 91.5174 71.228 91.2688 73.5167C91.0809 73.4428 90.8632 73.4518 90.6157 73.5437C90.3682 73.6356 90.131 73.687 89.9042 73.698C89.6956 73.705 89.522 73.6089 89.3833 73.4098C89.2264 73.2146 89.1465 72.8022 89.1437 72.1725C89.0667 72.1701 89.0239 72.2367 89.0151 72.3723C88.988 72.5118 88.9669 72.6788 88.9518 72.8731C88.9366 73.0674 88.9123 73.2636 88.8789 73.4619C88.8272 73.6641 88.7546 73.8136 88.661 73.9103C88.4471 73.3645 88.2805 72.6844 88.1612 71.8698C88.0197 71.041 87.921 70.1456 87.8652 69.1835C87.7912 68.2255 87.7568 67.2301 87.7621 66.1976C87.7452 65.1507 87.7434 64.1292 87.7566 63.1331C87.803 60.7928 87.924 58.3122 88.1197 55.6912C87.985 55.5103 87.9827 55.3675 88.1128 55.2629C88.2572 55.1361 88.4793 55.0593 88.7791 55.0325C89.0749 54.9874 89.4191 54.9892 89.8117 55.0378C90.2003 55.0681 90.5805 55.148 90.9524 55.2775C91.3243 55.4069 91.6493 55.5848 91.9276 55.8109C92.2201 56.0149 92.4091 56.27 92.4946 56.5761C92.1515 57.5483 91.875 58.5632 91.6651 59.6211C91.4734 60.675 91.3059 61.7523 91.1626 62.853C91.0375 63.9497 90.9163 65.0647 90.7992 66.198C90.7002 67.3273 90.568 68.4351 90.4025 69.5215C90.7197 68.0775 91.0817 66.576 91.4886 65.0171C91.8954 63.4581 92.3519 61.9075 92.8579 60.3652C93.3599 58.8047 93.9103 57.291 94.509 55.8242C95.126 54.3533 95.7921 52.9769 96.5073 51.6949C96.6891 51.3881 96.9268 51.0309 97.2205 50.6234C97.5324 50.212 97.8573 49.8168 98.1954 49.4379C98.5517 49.055 98.9016 48.7309 99.2451 48.4654C99.5887 48.1999 99.8901 48.0485 100.149 48.0114C100.263 48.0059 100.435 48.0068 100.666 48.0141C100.915 48.0174 101.181 48.0552 101.464 48.1275C101.765 48.1959 102.056 48.3047 102.337 48.4539C102.636 48.5992 102.899 48.8 103.127 49.0563ZM91.3984 57.7307C91.2881 57.9265 91.1487 58.2528 90.9803 58.7095C90.812 59.1662 90.6634 59.7141 90.5346 60.3533C90.4057 60.9924 90.313 61.7097 90.2563 62.5051C90.1956 63.2823 90.2217 64.1075 90.3347 64.9808C90.3252 64.8491 90.3384 64.6457 90.3742 64.3705C90.4101 64.0953 90.4471 63.7817 90.4854 63.4296C90.5379 63.0553 90.5956 62.6608 90.6585 62.246C90.7356 61.8091 90.8056 61.3832 90.8685 60.9685C91.0173 59.9812 91.194 58.9019 91.3984 57.7307ZM90.207 67.9595C90.1094 68.0379 90.0281 68.1033 89.963 68.1556C89.8004 68.2864 89.6735 68.3617 89.5822 68.3815C89.609 68.6812 89.639 68.9517 89.6722 69.1928C89.7054 69.4339 89.7295 69.677 89.7444 69.9221C89.7736 70.1449 89.7977 70.388 89.8166 70.6513C89.8498 70.8925 89.8889 71.1609 89.9339 71.4568L90.207 67.9595ZM102.36 54.6375C102.262 54.7159 102.18 54.8198 102.112 54.949C102.041 55.06 101.971 55.1801 101.904 55.3094C101.851 55.4164 101.786 55.5163 101.711 55.6091C101.65 55.6796 101.572 55.7156 101.477 55.7172C101.636 55.3961 101.77 55.0424 101.877 54.6563C102.002 54.2661 102.087 53.8657 102.132 53.4549C102.177 53.0441 102.174 52.6341 102.123 52.2248C102.091 51.8116 101.997 51.4214 101.841 51.0541C101.881 51.5038 101.87 51.9836 101.809 52.4935C101.766 52.9995 101.697 53.4729 101.601 53.9138C101.524 54.3507 101.431 54.7147 101.322 55.0057C101.228 55.2745 101.151 55.4057 101.093 55.3994C101.034 55.393 101.03 55.2411 101.08 54.9437C101.126 54.6281 101.172 54.2264 101.219 53.7387C101.285 53.2471 101.316 52.6864 101.313 52.0567C101.306 51.4087 101.23 50.7473 101.083 50.0723C101.108 51.595 101.024 52.8833 100.833 53.9372C100.641 54.9911 100.39 55.905 100.081 56.6788C99.771 57.4527 99.4233 58.1393 99.0375 58.7387C98.6661 59.3159 98.3017 59.8819 97.9446 60.4369C98.2635 60.234 98.5607 59.9308 98.8361 59.5273C99.1258 59.1016 99.3881 58.6818 99.6231 58.2679C99.858 57.8541 100.068 57.5028 100.254 57.2143C100.454 56.9035 100.613 56.7545 100.73 56.7672C100.848 56.78 100.884 56.9057 100.841 57.1444C100.797 57.3831 100.69 57.6832 100.52 58.0447C100.346 58.3881 100.133 58.7686 99.8795 59.1864C99.6263 59.6042 99.3509 60.0078 99.0533 60.397C99.5023 60.0895 99.8392 59.7491 100.064 59.3757C100.284 58.984 100.535 58.5955 100.814 58.2103C100.844 58.261 100.936 58.1552 101.089 57.8928C101.238 57.6121 101.396 57.2819 101.562 56.9021C101.742 56.5001 101.911 56.0909 102.069 55.6747C102.227 55.2584 102.324 54.9127 102.36 54.6375ZM124.804 65.1561C124.687 65.4106 124.432 65.7333 124.04 66.124C123.661 66.4926 123.262 66.856 122.844 67.2143C122.425 67.5725 122.051 67.8733 121.721 68.1166C121.41 68.3559 121.267 68.4443 121.292 68.3817C120.684 68.8381 120.089 69.0912 119.508 69.1409C118.927 69.1905 118.389 69.0876 117.894 68.8319C117.395 68.5581 116.93 68.172 116.497 67.6737C116.064 67.1754 115.694 66.6157 115.388 65.9946C115.081 65.3735 114.844 64.7183 114.675 64.029C114.506 63.3397 114.439 62.6763 114.473 62.0387C114.406 62.8745 114.337 63.7013 114.266 64.5189C114.195 65.3365 114.124 66.1541 114.052 66.9717C114.105 67.4762 114.139 67.8985 114.155 68.2387C114.172 68.579 114.138 68.8633 114.054 69.0916C114.001 69.1987 113.955 69.2946 113.916 69.3794C113.877 69.4643 113.831 69.5602 113.777 69.6673C113.761 69.7664 113.742 69.8564 113.721 69.9373C113.715 69.9959 113.713 70.0729 113.714 70.168C113.886 70.1689 113.897 70.2621 113.746 70.4476C113.614 70.6292 113.378 70.8618 113.038 71.1455C112.698 71.4293 112.306 71.734 111.861 72.0597C111.416 72.3855 110.983 72.6799 110.563 72.9429C110.207 73.1537 109.88 73.3201 109.582 73.4421C109.288 73.5823 109.055 73.6519 108.883 73.6511C109.045 73.253 109.187 72.7638 109.309 72.1833C109.432 71.6028 109.546 70.9859 109.653 70.3325C109.774 69.6568 109.874 68.976 109.955 68.2901C110.054 67.6001 110.135 66.9618 110.198 66.3749C110.277 65.7659 110.343 65.2358 110.398 64.7845C110.453 64.3333 110.481 64.0216 110.482 63.8495C110.38 63.9098 110.306 64.0501 110.258 64.2705C110.224 64.4688 110.192 64.7146 110.16 65.008C110.142 65.2793 110.12 65.5707 110.092 65.8824C110.082 66.1901 110.05 66.4835 109.996 66.7626C109.996 66.7626 109.993 66.792 109.986 66.8507C109.998 66.9054 109.994 66.9732 109.973 67.0541C109.967 67.1128 109.951 67.1734 109.927 67.2361C109.898 67.2805 109.882 67.2935 109.878 67.2753C109.804 67.4632 109.724 67.5762 109.636 67.6142C109.667 67.4929 109.7 67.247 109.734 66.8767C109.783 66.4842 109.827 66.0734 109.868 65.6443C109.905 65.1971 109.948 64.7772 109.996 64.3846C110.045 63.9921 110.094 63.7332 110.143 63.6079C110.176 63.4096 110.208 63.2023 110.237 62.9858C110.281 62.7471 110.329 62.5266 110.38 62.3244C110.446 62.1 110.534 61.8899 110.645 61.6941C110.769 61.476 110.931 61.2977 111.13 61.159C111.249 61.2669 111.315 61.4819 111.327 61.8039C111.336 62.1076 111.323 62.4447 111.289 62.815C111.269 63.1632 111.265 63.4982 111.278 63.8202C111.286 64.124 111.35 64.3298 111.469 64.4377C111.546 63.2942 111.604 62.2406 111.643 61.277C111.697 60.2913 111.758 59.342 111.828 58.4292C111.893 57.4982 111.954 56.5874 112.009 55.6968C112.082 54.8022 112.17 53.8855 112.272 52.9465C112.217 52.9584 112.164 53.1991 112.113 53.6686C112.058 54.1198 111.985 54.7086 111.895 55.435C111.818 56.1392 111.73 56.9223 111.631 57.7843C111.549 58.6424 111.458 59.4549 111.357 60.2217C111.194 60.0852 111.047 60.0693 110.917 60.1739C110.801 60.2563 110.688 60.3954 110.577 60.5913C110.485 60.7831 110.406 60.9913 110.34 61.2157C110.289 61.4179 110.253 61.5594 110.232 61.6403C110.187 61.6117 110.178 61.3465 110.203 60.8444C110.242 60.3203 110.286 59.6422 110.334 58.8103C110.415 57.685 110.493 56.7226 110.568 55.9232C110.661 55.1199 110.735 54.5787 110.789 54.2995C110.99 54.256 111.091 54.4155 111.093 54.7779C111.095 55.1404 111.064 55.5674 110.999 56.0591C110.951 56.5468 110.904 57.0345 110.857 57.5222C110.806 57.9917 110.848 58.3169 110.983 58.4978C111.077 57.5223 111.182 56.5065 111.296 55.4502C111.411 54.3938 111.562 53.3296 111.75 52.2575C111.876 51.428 112.026 50.6219 112.2 49.8393C112.392 49.0526 112.616 48.3259 112.873 47.6591C112.957 47.4307 113.236 47.1315 113.71 46.7613C114.202 46.3873 114.743 46.0216 115.334 45.6642C115.925 45.3068 116.504 44.9808 117.07 44.6861C117.637 44.3913 118.044 44.198 118.291 44.1062C118.078 44.5343 117.928 44.8534 117.84 45.0636C117.77 45.2697 117.727 45.4224 117.71 45.5215C117.707 45.5984 117.701 45.6571 117.691 45.6975C117.699 45.734 117.676 45.8058 117.623 45.9128C117.286 47.2656 117.016 48.4416 116.812 49.4408C116.627 50.436 116.467 51.4161 116.332 52.3812C116.216 53.3424 116.102 54.3602 115.992 55.4348C115.899 56.5054 115.786 57.7905 115.653 59.2901C116.023 58.1784 116.474 57.221 117.007 56.4179C117.558 55.6109 118.155 54.9275 118.797 54.368C119.458 53.8044 120.127 53.3635 120.802 53.045C121.493 52.7043 122.15 52.4759 122.774 52.3596C123.562 52.2078 124.198 52.3183 124.68 52.6913C125.158 53.0461 125.519 53.5693 125.765 54.261C126.01 54.9527 126.15 55.7724 126.184 56.7201C126.217 57.6679 126.18 58.6405 126.071 59.6382C125.963 60.6358 125.794 61.6179 125.564 62.5846C125.335 63.5512 125.081 64.4084 124.804 65.1561ZM121.922 63.89C122.06 63.3825 122.15 62.8282 122.192 62.2271C122.233 61.626 122.227 61.0256 122.174 60.426C122.138 59.8225 122.069 59.236 121.964 58.6665C121.878 58.0931 121.751 57.5953 121.583 57.1733C121.433 56.7474 121.256 56.4134 121.051 56.1714C120.845 55.9294 120.633 55.8322 120.414 55.8796C120.159 55.935 119.901 56.0673 119.641 56.2765C119.377 56.4675 119.122 56.7041 118.878 56.9863C118.652 57.2646 118.434 57.5793 118.223 57.9305C118.009 58.2635 117.815 58.6017 117.641 58.945C117.189 59.7687 116.787 60.6869 116.433 61.6995C116.833 62.6633 117.273 63.5038 117.754 64.2209C117.934 64.5256 118.133 64.8262 118.35 65.123C118.586 65.4157 118.822 65.67 119.06 65.8859C119.312 66.0795 119.556 66.2367 119.793 66.3573C120.043 66.4558 120.296 66.4774 120.552 66.422C120.698 66.3903 120.83 66.2948 120.948 66.1355C121.08 65.954 121.207 65.745 121.328 65.5088C121.444 65.2543 121.548 64.9835 121.639 64.6964C121.747 64.4054 121.842 64.1366 121.922 63.89ZM125.098 59.2475C124.943 60.0262 124.777 60.7593 124.601 61.4468C124.461 62.0312 124.302 62.6196 124.124 63.2119C123.962 63.7821 123.798 64.2186 123.635 64.5214L123.006 65.7178L123.604 65.3018C123.924 64.7547 124.213 64.1478 124.469 63.481C124.673 62.9211 124.84 62.2832 124.971 61.5671C125.117 60.8289 125.159 60.0556 125.098 59.2475ZM129.06 69.5908C129.026 69.5218 128.848 69.3599 128.525 69.1052C128.207 68.8687 127.86 68.5905 127.485 68.2707C127.11 67.9509 126.755 67.6363 126.421 67.3268C126.086 67.0173 125.89 66.7733 125.832 66.5949C126.009 66.4419 126.19 66.3072 126.375 66.1907C126.523 66.0821 126.692 65.9787 126.881 65.8805C127.069 65.7822 127.251 65.6951 127.426 65.619C127.44 65.1575 127.455 64.6959 127.469 64.2344C127.481 63.8497 127.485 63.4286 127.482 62.971C127.478 62.5134 127.482 62.0923 127.494 61.7076C127.593 61.7243 127.655 61.7014 127.68 61.6387C127.704 61.5761 127.762 61.5349 127.854 61.5151C127.845 61.2114 127.881 60.7165 127.961 60.0305C128.038 59.3263 128.136 58.5028 128.257 57.5599C128.395 56.613 128.545 55.5873 128.707 54.4826C128.883 53.3557 129.058 52.2289 129.234 51.102C129.424 49.953 129.602 48.8352 129.768 47.7488C129.933 46.6624 130.082 45.6751 130.214 44.7869C130.342 43.8805 130.434 43.1156 130.49 42.4923C130.56 41.8468 130.583 41.4217 130.557 41.2171C130.512 41.0933 130.681 41.0375 131.066 41.0496C131.45 41.0617 131.898 41.146 132.41 41.3025C132.939 41.4551 133.465 41.6754 133.986 41.9636C134.506 42.2517 134.869 42.6029 135.073 43.017C135.06 43.3064 135.004 43.7101 134.906 44.2279C134.805 44.7275 134.689 45.2968 134.56 45.936C134.432 46.5751 134.292 47.2547 134.143 47.9747C133.994 48.6948 133.853 49.4128 133.722 50.1289C133.605 50.8228 133.504 51.5036 133.42 52.1713C133.332 52.8208 133.293 53.3926 133.305 53.8866C133.306 53.9818 133.277 54.0647 133.215 54.1352C133.169 54.1836 133.113 54.2339 133.048 54.2862C132.983 54.3385 132.919 54.4 132.858 54.4705C132.812 54.5189 132.789 54.5906 132.79 54.6858C132.922 54.6763 133 54.6403 133.025 54.5777C133.064 54.4928 133.149 54.4457 133.281 54.4362C133.156 54.6543 133.08 54.9191 133.052 55.2308C133.029 55.3886 133.017 55.5535 133.016 55.7256C132.832 56.1094 132.698 56.4154 132.613 56.6438C132.54 56.8317 132.507 56.9439 132.514 56.9804C132.537 56.9947 132.66 56.8151 132.885 56.4417C132.729 57.6598 132.568 58.812 132.402 59.8984C132.255 60.9809 132.048 62.0955 131.781 63.2421C130.918 66.9247 130.334 68.9039 130.031 69.1797C129.746 69.4516 129.488 69.6699 129.257 69.8348C129.432 69.5866 129.548 69.4182 129.605 69.3294C129.663 69.2406 129.664 69.2021 129.609 69.214C129.576 69.2401 129.502 69.2944 129.386 69.3768C129.289 69.4553 129.18 69.5266 129.06 69.5908ZM131.42 47.0466C131.549 46.8468 131.703 46.632 131.882 46.4021C132.058 46.1539 132.215 45.9098 132.354 45.6695C132.511 45.4254 132.63 45.18 132.71 44.9334C132.786 44.6685 132.788 44.4104 132.714 44.1589C132.517 44.66 132.287 45.1397 132.023 45.598C131.774 46.034 131.573 46.5169 131.42 47.0466ZM132.411 51.6164C132.461 51.4911 132.525 51.3052 132.606 51.0586C132.704 50.808 132.655 50.6276 132.46 50.5172C132.435 50.5799 132.405 50.6627 132.37 50.7658C132.335 50.8689 132.302 50.9811 132.271 51.1024C132.259 51.2198 132.264 51.3332 132.288 51.4427C132.308 51.5339 132.349 51.5918 132.411 51.6164ZM130.913 56.0671C131.156 55.957 131.383 55.946 131.593 56.0342C131.584 55.9025 131.612 55.7245 131.678 55.5001C131.762 55.2717 131.837 55.0453 131.903 54.8209C131.969 54.5965 132.004 54.4074 132.009 54.2536C132.032 54.0957 131.98 54.0307 131.852 54.0584C131.854 54.1535 131.841 54.2709 131.814 54.4105C131.805 54.5461 131.776 54.6765 131.727 54.8018C131.696 54.9231 131.65 55.0191 131.589 55.0896C131.528 55.1602 131.464 55.174 131.397 55.1312C131.4 55.0542 131.432 54.8084 131.495 54.3937C131.576 53.975 131.651 53.5289 131.721 53.0555C131.79 52.582 131.831 52.153 131.843 51.7684C131.869 51.3615 131.827 51.1224 131.716 51.051C131.723 51.2596 131.683 51.6025 131.595 52.0799C131.504 52.5391 131.4 53.0295 131.284 53.5513C131.186 54.0691 131.093 54.5667 131.006 55.0441C130.937 55.5175 130.906 55.8585 130.913 56.0671ZM131.286 59.1091C131.259 58.8094 131.292 58.6972 131.385 58.7725C131.473 58.8297 131.577 58.9122 131.696 59.0201C131.666 58.9694 131.663 58.8651 131.686 58.7073C131.705 58.5312 131.724 58.3552 131.743 58.1791C131.772 57.9626 131.811 57.7442 131.859 57.5237C131.838 57.6046 131.778 57.7227 131.678 57.8781C131.574 58.0153 131.474 58.1706 131.378 58.3443C131.296 58.4957 131.232 58.6432 131.187 58.7867C131.142 58.9302 131.175 59.0377 131.286 59.1091ZM131.099 59.4362C131.235 59.7123 131.274 59.9807 131.216 60.2416C131.172 60.4803 131.092 60.7269 130.975 60.9814C130.873 61.2137 130.782 61.4532 130.701 61.6998C130.617 61.9282 130.601 62.1609 130.652 62.3981C130.636 62.3251 130.665 62.2807 130.738 62.2649C130.825 62.2269 130.914 62.198 131.006 62.1782C131.085 61.6643 131.184 61.1941 131.301 60.7675C131.433 60.3187 131.529 59.7917 131.589 59.1866C131.457 59.1961 131.372 59.2432 131.333 59.3281C131.29 59.3947 131.212 59.4307 131.099 59.4362ZM129.677 63.5836C129.811 63.4972 129.912 63.3894 129.98 63.2602C130.047 63.131 130.083 62.9894 130.088 62.8356C130.093 62.6817 130.089 62.5298 130.075 62.3799C130.062 62.23 130.043 62.1004 130.02 61.9909C130.011 62.1265 129.969 62.1546 129.895 62.0753C129.838 61.992 129.779 61.938 129.716 61.9134C129.747 62.2315 129.743 62.5189 129.703 62.7759C129.659 63.0146 129.651 63.2838 129.677 63.5836ZM155.736 65.6972C155.78 65.8979 155.918 66.1831 156.151 66.5528C156.384 66.9225 156.659 67.178 156.976 67.3193C156.895 67.4707 156.704 67.5599 156.404 67.5867C156.122 67.6095 155.774 67.5895 155.36 67.5266C154.963 67.4598 154.527 67.3442 154.052 67.1798C153.581 67.0336 153.132 66.8541 152.704 66.6414C152.294 66.4246 151.927 66.1889 151.605 65.9342C151.282 65.6794 151.064 65.4212 150.95 65.1594C150.783 64.8326 150.669 64.3035 150.606 63.5723C150.547 62.8593 150.472 62.0733 150.381 61.2144C150.531 61.201 150.643 61.1003 150.716 60.9124C150.786 60.7062 150.818 60.4988 150.811 60.2903C150.818 60.0595 150.802 59.8529 150.762 59.6705C150.737 59.4658 150.695 59.3603 150.636 59.354C150.592 59.3254 150.537 59.4233 150.471 59.6477C150.423 59.8681 150.388 60.277 150.364 60.8741C150.319 60.311 150.28 59.7368 150.249 59.1515C150.237 58.6574 150.225 58.1158 150.211 57.5265C150.217 56.9333 150.257 56.3706 150.332 55.8385C150.266 55.7956 150.13 56.0065 149.925 56.4712C149.735 56.9136 149.506 57.4885 149.239 58.1957C148.972 58.903 148.692 59.6801 148.398 60.5269C148.119 61.3516 147.854 62.1156 147.606 62.8189C147.361 63.5404 147.155 64.1296 146.986 64.5863C146.822 65.0613 146.738 65.2896 146.734 65.2714C146.669 65.3237 146.475 65.3561 146.153 65.3686C145.835 65.3994 145.443 65.3984 144.978 65.3656C144.535 65.3472 144.047 65.3001 143.515 65.2245C143.001 65.1449 142.499 65.034 142.01 64.8918C141.539 64.7456 141.128 64.5674 140.777 64.357C140.407 64.1506 140.152 63.9003 140.012 63.606C140.099 63.568 140.185 63.5684 140.27 63.6073C140.337 63.6502 140.407 63.7113 140.482 63.7906C140.534 63.8557 140.596 63.9188 140.666 63.9799C140.715 64.0267 140.764 64.035 140.815 64.0049C140.714 63.8931 140.63 63.7681 140.562 63.6301C140.494 63.492 140.42 63.3742 140.342 63.2766C140.263 63.1791 140.184 63.1199 140.103 63.0993C140 63.0643 139.883 63.0991 139.753 63.2038C139.679 63.1244 139.607 62.7961 139.539 62.2187C139.468 61.623 139.406 60.9009 139.356 60.0523C139.284 59.1894 139.218 58.2678 139.158 57.2875C139.094 56.289 139.042 55.3453 139.002 54.4562C138.977 53.5449 138.947 52.7491 138.914 52.0686C138.9 51.3842 138.894 50.9175 138.897 50.6684C138.891 50.2878 138.907 49.7877 138.944 49.1684C139 48.545 139.057 47.8833 139.115 47.183C139.188 46.4606 139.261 45.7381 139.333 45.0157C139.406 44.2932 139.456 43.6425 139.483 43.0636C139.528 42.4807 139.559 42.0061 139.575 41.6397C139.591 41.2733 139.57 41.0869 139.511 41.0805C139.722 40.7293 140.061 40.5792 140.531 40.6302C141.015 40.659 141.522 40.7973 142.053 41.045C142.603 41.2887 143.117 41.588 143.595 41.9428C144.073 42.2975 144.402 42.6272 144.583 42.9318C144.489 43.0285 144.416 43.1304 144.363 43.2375C144.309 43.3445 144.26 43.4698 144.215 43.6133C144.166 43.7386 144.129 43.8801 144.106 44.0379C144.105 44.3821 144.074 44.8567 144.014 45.4618C143.95 46.0487 143.864 46.7073 143.755 47.4376C143.66 48.1458 143.548 48.9055 143.418 49.7167C143.303 50.5058 143.202 51.2726 143.115 52.0173C143.024 52.7437 142.951 53.4185 142.895 54.0419C142.853 54.643 142.852 55.1208 142.89 55.4753C143.001 56.4255 143.129 57.3241 143.275 58.1712C143.434 58.9961 143.596 59.744 143.761 60.415C143.94 61.0639 144.108 61.6195 144.266 62.082C144.438 62.5222 144.571 62.8276 144.665 62.9982C144.868 62.8777 144.953 62.6969 144.92 62.4558C144.905 62.2108 144.925 61.9962 144.981 61.8123C145.105 61.327 145.259 60.8064 145.444 60.2506C145.644 59.6725 145.711 59.0563 145.645 58.402C145.878 58.0651 146.057 57.7016 146.182 57.3114C146.322 56.8991 146.433 56.4836 146.514 56.0649C146.609 55.624 146.697 55.1942 146.778 54.7755C146.874 54.3346 146.995 53.9263 147.143 53.5504C147.283 53.5775 147.364 53.6457 147.388 53.7552C147.426 53.8424 147.432 53.9558 147.405 54.0954C147.378 54.235 147.332 54.3785 147.269 54.526C147.22 54.6512 147.185 54.7543 147.164 54.8352C147.346 54.7956 147.487 54.5645 147.587 54.1419C147.682 53.701 147.766 53.2054 147.837 52.655C147.905 52.0864 147.967 51.538 148.025 51.0099C148.1 50.4778 148.203 50.1118 148.331 49.912C148.314 49.7439 148.351 49.4302 148.442 48.9711C148.552 48.508 148.682 47.964 148.833 47.3392C148.999 46.6921 149.172 45.9955 149.354 45.2493C149.536 44.5031 149.704 43.7791 149.857 43.0774C150.029 42.3716 150.165 41.7214 150.265 41.1266C150.38 40.5097 150.425 40.0128 150.4 39.6361C150.731 39.488 151.115 39.4525 151.552 39.5296C151.985 39.5886 152.425 39.7224 152.871 39.9312C153.314 40.1218 153.748 40.3619 154.173 40.6516C154.617 40.9374 155.005 41.2258 155.335 41.5171C155.68 41.7861 155.964 42.0396 156.188 42.2777C156.407 42.4975 156.527 42.653 156.547 42.7442C156.123 43.6957 155.796 44.8744 155.566 46.2804C155.332 47.6681 155.165 49.1463 155.066 50.715C154.985 52.2797 154.956 53.8618 154.978 55.4615C155.019 57.0571 155.076 58.5537 155.149 59.9511C155.238 61.3263 155.336 62.5275 155.444 63.5546C155.552 64.5817 155.649 65.2959 155.736 65.6972ZM141.081 59.4203C141.112 59.299 141.129 59.0662 141.131 58.7221C141.151 58.3739 141.161 57.9801 141.161 57.5408C141.157 57.0832 141.14 56.6093 141.111 56.1192C141.095 55.6069 141.067 55.1258 141.027 54.6761C141.005 54.2225 140.967 53.8295 140.914 53.4972C140.88 53.1609 140.83 52.9329 140.766 52.8131C140.771 53.0986 140.76 53.5784 140.734 54.2525C140.723 54.9044 140.719 55.5928 140.724 56.3176C140.742 57.0203 140.769 57.6734 140.805 58.277C140.858 58.8766 140.951 59.2577 141.081 59.4203ZM149.328 54.5092C149.345 54.4101 149.376 54.3363 149.423 54.288C149.484 54.2174 149.538 54.158 149.585 54.1096C149.646 54.0391 149.687 53.9633 149.708 53.8825C149.747 53.7976 149.743 53.6933 149.697 53.5696C149.606 53.5894 149.523 53.6456 149.447 53.7384C149.368 53.8129 149.302 53.9037 149.249 54.0107C149.191 54.0995 149.164 54.1915 149.165 54.2866C149.167 54.3818 149.221 54.456 149.328 54.5092ZM147.804 59.7676C147.911 59.3815 148.04 58.962 148.19 58.5092C148.354 58.0343 148.504 57.5815 148.64 57.1509C148.79 56.6982 148.908 56.2716 148.993 55.8711C149.092 55.4485 149.14 55.0944 149.135 54.8089C148.717 55.8737 148.318 56.9438 147.94 58.019C147.562 59.0942 147.306 60.248 147.172 61.4803C147.422 61.3115 147.568 61.0602 147.61 60.7264C147.653 60.3925 147.717 60.0729 147.804 59.7676ZM147.698 57.957C147.8 57.7247 147.88 57.4781 147.938 57.2172C147.992 56.9381 148.08 56.6804 148.2 56.4441C148.058 56.494 147.961 56.4864 147.909 56.4213C147.871 56.3341 147.811 56.2801 147.731 56.2595C147.762 56.4054 147.748 56.5612 147.689 56.7269C147.643 56.8705 147.598 57.014 147.553 57.1575C147.508 57.301 147.483 57.4497 147.478 57.6036C147.487 57.7352 147.56 57.853 147.698 57.957ZM143.481 62.825C143.708 62.8141 143.826 62.7408 143.835 62.6052C143.84 62.4513 143.811 62.276 143.75 62.0793C143.596 62.0745 143.477 61.9665 143.393 61.7555C143.309 61.5445 143.232 61.3224 143.162 61.0892C143.107 60.8338 143.032 60.6209 142.938 60.4503C142.844 60.2797 142.711 60.2416 142.541 60.3359C142.587 60.4596 142.665 60.6433 142.775 60.8868C142.881 61.1121 142.98 61.3485 143.072 61.596C143.182 61.8395 143.272 62.0779 143.341 62.3111C143.429 62.5403 143.476 62.7116 143.481 62.825ZM143.568 63.0928C143.659 63.073 143.72 63.0885 143.75 63.1392C143.795 63.1678 143.834 63.2166 143.868 63.2856C143.898 63.3364 143.937 63.3852 143.986 63.432C144.03 63.4606 144.103 63.4448 144.204 63.3845C144.217 63.2672 144.197 63.176 144.145 63.1109C144.089 63.0276 144.018 62.9665 143.933 62.9276C143.867 62.8847 143.79 62.8823 143.703 62.9203C143.63 62.9362 143.585 62.9936 143.568 63.0928ZM145.134 41.3797C145.059 41.0331 144.978 40.6591 144.891 40.2578C144.8 39.8382 144.689 39.4134 144.557 38.9835C144.444 38.5497 144.302 38.1126 144.13 37.6723C143.954 37.2139 143.753 36.7704 143.526 36.3421C143.775 36.0781 144.002 35.8474 144.207 35.6501C144.413 35.4527 144.608 35.2958 144.793 35.1793C144.973 35.0446 145.164 34.9554 145.365 34.9119C145.562 34.8502 145.796 34.8281 146.067 34.8457C146.203 35.1217 146.317 35.3835 146.409 35.631C146.501 35.8785 146.584 36.1279 146.657 36.3794C146.731 36.6308 146.797 36.8934 146.857 37.167C146.93 37.4184 147.001 37.6992 147.068 38.0094C147.562 37.5584 147.979 37.1434 148.317 36.7645C148.651 36.3673 148.84 36.0494 148.883 35.8107C148.854 35.5879 148.778 35.4133 148.655 35.2872C148.849 35.0351 149.063 34.9218 149.298 34.9473C149.547 34.9506 149.784 35.0328 150.01 35.1939C150.236 35.355 150.437 35.5788 150.614 35.8652C150.805 36.1294 150.958 36.3923 151.072 36.6541C150.843 36.5699 150.727 36.6048 150.722 36.7586C150.713 36.8942 150.763 37.1698 150.873 37.5855C150.698 37.6615 150.489 37.8406 150.244 38.1228C150 38.405 149.738 38.7388 149.459 39.1241C149.175 39.4911 148.896 39.8764 148.62 40.2799C148.345 40.6835 148.087 41.0355 147.847 41.3359C147.624 41.6324 147.434 41.8551 147.275 42.0042C147.117 42.1532 147.021 42.1547 146.99 42.0088L145.134 41.3797ZM146.726 38.284C146.699 38.1563 146.646 37.9576 146.569 37.6879C146.491 37.4182 146.4 37.1323 146.297 36.8301C146.211 36.5239 146.113 36.249 146.003 36.0055C145.907 35.7398 145.82 35.5581 145.742 35.4605C145.729 35.5779 145.752 35.7734 145.812 36.047C145.889 36.3167 145.971 36.6047 146.056 36.9108C146.142 37.217 146.236 37.5212 146.34 37.8234C146.44 38.1074 146.508 38.3314 146.543 38.4956C146.604 38.4251 146.665 38.3545 146.726 38.284ZM188.338 28.4014C188.493 28.5014 188.611 28.6478 188.691 28.8405C188.789 29.0293 188.842 29.228 188.849 29.4366C188.856 29.6452 188.835 29.8597 188.788 30.0801C188.74 30.3006 188.675 30.4865 188.593 30.638C188.497 30.8116 188.431 30.9024 188.395 30.9103C188.354 30.8999 188.308 30.8623 188.255 30.7972C188.217 30.7099 188.166 30.6064 188.102 30.4866C188.056 30.3629 187.976 30.2562 187.861 30.1665C187.75 30.0951 187.564 30.3836 187.304 31.0322C187.057 31.6586 186.768 32.5237 186.434 33.6275C186.115 34.7091 185.779 35.9374 185.428 37.3124C185.095 38.6834 184.784 40.0688 184.496 41.4684C185.028 41.544 185.486 41.4542 185.87 41.199C186.272 40.9399 186.576 40.6256 186.783 40.2562C187.496 40.9037 187.962 41.557 188.182 42.2162C188.397 42.8571 188.383 43.4523 188.139 44.0018C187.895 44.5512 187.414 45.0185 186.695 45.4036C185.995 45.7847 185.054 46.0268 183.873 46.1301C183.812 46.64 183.721 47.2328 183.6 47.9084C183.497 48.5801 183.395 49.2994 183.294 50.0662C183.207 50.8109 183.136 51.5809 183.079 52.3763C183.036 53.1495 183.047 53.9018 183.11 54.633C183.191 55.3603 183.338 56.0353 183.549 56.658C183.764 57.2989 184.08 57.832 184.497 58.2573C184.11 58.0548 183.772 57.7747 183.484 57.4169C183.201 57.0773 182.891 56.7528 182.557 56.4433C182.701 56.7559 182.843 57.0117 182.981 57.2108C183.124 57.4282 183.242 57.6222 183.337 57.7927C183.431 57.9633 183.485 58.1235 183.498 58.2734C183.534 58.4376 183.507 58.6248 183.419 58.8349C183.178 58.8681 182.94 58.8719 182.706 58.8464C182.489 58.8169 182.293 58.7926 182.117 58.7735C181.945 58.7726 181.795 58.786 181.667 58.8137C181.543 58.8597 181.459 58.9544 181.414 59.0979C180.573 59.1847 179.915 59.0123 179.439 58.5806C178.967 58.1672 178.627 57.6106 178.418 56.911C178.213 56.2297 178.106 55.4699 178.096 54.6316C178.082 53.7751 178.116 52.9653 178.199 52.2025C178.192 52.4332 178.199 52.7279 178.219 53.0863C178.254 53.4226 178.286 53.7498 178.317 54.0678C178.348 54.3859 178.389 54.6635 178.441 54.9006C178.506 55.1156 178.568 55.2262 178.627 55.2326C178.558 54.8273 178.556 54.2452 178.621 53.4863C178.7 52.7051 178.789 51.8836 178.889 51.0215C179.003 50.1373 179.122 49.2805 179.248 48.451C179.37 47.6033 179.457 46.9062 179.511 46.3598C178.922 46.373 178.305 46.3921 177.661 46.4171C177.112 46.4406 176.49 46.48 175.796 46.5351C175.101 46.5903 174.408 46.6545 173.717 46.7279C173.504 47.3282 173.29 47.9284 173.076 48.5287C172.863 49.1289 172.682 49.7506 172.535 50.3937C172.403 51.0146 172.307 51.6752 172.249 52.3754C172.19 53.0757 172.208 53.8168 172.301 54.5988C172.295 54.6575 172.332 54.6972 172.413 54.7178C172.453 54.7282 172.492 54.7294 172.528 54.7215C172.495 54.041 172.498 53.4386 172.538 52.9144C172.574 52.4672 172.628 52.0544 172.699 51.6762C172.784 51.2757 172.906 51.0485 173.067 50.9947C172.97 51.3404 172.921 51.819 172.92 52.4305C172.915 53.0237 172.945 53.6475 173.01 54.3018C173.09 54.9339 173.204 55.549 173.353 56.147C173.52 56.7411 173.734 57.2008 173.996 57.5261C173.868 57.5538 173.72 57.5288 173.55 57.4509C173.402 57.3874 173.26 57.3037 173.123 57.1997C172.945 57.0854 172.773 56.9509 172.606 56.7962C172.684 56.8938 172.753 56.9933 172.814 57.0949C172.938 57.3162 172.995 57.5331 172.983 57.7457C172.807 57.7265 172.644 57.6761 172.492 57.5943C172.363 57.5269 172.218 57.4725 172.056 57.4311C171.958 57.5096 171.919 57.5944 171.939 57.6856C171.981 57.7911 172.03 57.8855 172.086 57.9688C172.147 58.0704 172.185 58.1577 172.2 58.2306C172.238 58.3179 172.207 58.3916 172.105 58.4518C171.763 58.3731 171.501 58.2199 171.318 57.9922C171.139 57.7828 170.897 57.4626 170.594 57.0318C170.482 57.1325 170.436 57.2284 170.456 57.3197C170.476 57.4109 170.516 57.5073 170.576 57.6088C170.632 57.6921 170.69 57.7845 170.751 57.8861C170.829 57.9837 170.862 58.0911 170.849 58.2085C170.156 57.9195 169.63 57.5179 169.27 57.0038C168.906 56.4715 168.653 55.8769 168.511 55.2202C168.368 54.5634 168.322 53.8667 168.373 53.13C168.437 52.371 168.535 51.6335 168.666 50.9175C168.798 50.2014 168.955 49.5178 169.139 48.8668C169.318 48.1976 169.47 47.6203 169.594 47.135C169.235 47.1554 168.934 47.2207 168.691 47.3308C168.466 47.437 168.257 47.5776 168.066 47.7528C167.889 47.9058 167.727 48.0841 167.58 48.2879C167.452 48.4876 167.292 48.6751 167.101 48.8503C167.046 48.8622 167.008 48.7749 166.987 48.5885C166.965 48.4021 166.94 48.1975 166.911 47.9746C166.9 47.7478 166.882 47.5321 166.857 47.3275C166.849 47.1189 166.826 47.0094 166.785 46.9991C166.763 46.9848 166.721 47.099 166.659 47.3416C166.575 47.57 166.479 48.0109 166.373 48.6643C166.261 47.1796 166.596 45.9513 167.379 44.9795C168.176 43.9854 169.282 43.2297 170.698 42.7126C170.842 42.1464 170.995 41.4831 171.154 40.7226C171.333 39.9582 171.489 39.2271 171.624 38.5293C171.756 37.8132 171.839 37.1839 171.874 36.6415C171.927 36.0951 171.909 35.7457 171.819 35.5934C171.71 35.445 171.578 35.3209 171.423 35.2209C171.263 35.1026 171.101 35.0137 170.935 34.9541C170.747 34.8803 170.554 34.8266 170.356 34.7932C170.513 34.549 170.745 34.2982 171.052 34.0406C171.359 33.783 171.701 33.5559 172.079 33.3595C172.471 33.1408 172.877 32.9859 173.296 32.895C173.73 32.7818 174.145 32.7586 174.542 32.8254C174.938 32.8923 175.302 33.0713 175.632 33.3625C175.959 33.6355 176.22 34.0468 176.416 34.5965C176.597 35.1684 176.627 35.7922 176.506 36.4678C176.4 37.1213 176.229 37.7886 175.995 38.4697C175.779 39.1468 175.535 39.83 175.265 40.519C174.99 41.1898 174.78 41.8083 174.636 42.3744C175.433 42.3542 176.2 42.3217 176.935 42.2769C177.557 42.2376 178.181 42.2074 178.806 42.1863C179.45 42.1613 179.959 42.1274 180.332 42.0848C180.465 41.2918 180.631 40.425 180.828 39.4846C181.021 38.5258 181.214 37.5671 181.407 36.6084C181.615 35.6275 181.819 34.6759 182.02 33.7537C182.24 32.8275 182.442 32.0004 182.628 31.2725C182.829 30.5223 183.011 29.9098 183.175 29.4348C183.336 28.9416 183.463 28.6467 183.557 28.5499C183.728 28.2836 183.999 28.0815 184.371 27.9437C184.742 27.8059 185.156 27.7351 185.614 27.7314C186.067 27.7094 186.535 27.7513 187.016 27.857C187.498 27.9628 187.938 28.1442 188.338 28.4014ZM170.987 54.4827C171.091 53.4669 171.228 52.5109 171.396 51.6148C171.579 50.6965 171.76 49.9028 171.94 49.2335C172.15 48.4429 172.375 47.7162 172.613 47.0533C172.489 47.0992 172.411 47.0877 172.376 47.0187C172.361 46.9457 172.321 46.8969 172.259 46.8723C172.076 47.3512 171.899 47.9435 171.727 48.6493C171.57 49.3328 171.428 50.0418 171.3 50.7761C171.191 51.5064 171.104 52.2035 171.037 52.8673C170.99 53.5271 170.973 54.0656 170.987 54.4827ZM182.535 41.8076C182.641 41.1541 182.776 40.4087 182.938 39.5713C183.119 38.73 183.291 37.8521 183.456 36.9378C183.639 36.0195 183.796 35.1163 183.928 34.2281C184.075 33.3178 184.176 32.4649 184.233 31.6694C184.182 31.6996 184.108 31.9735 184.01 32.4913C183.908 32.9909 183.776 33.6594 183.614 34.4968C183.466 35.312 183.287 36.2485 183.077 37.3064C182.863 38.346 182.626 39.4098 182.365 40.4977C182.347 40.5017 182.356 40.3661 182.392 40.0909C182.442 39.7935 182.498 39.4375 182.561 39.0227C182.624 38.608 182.688 38.1548 182.754 37.6631C182.837 37.1675 182.91 36.7123 182.973 36.2975C183.036 35.8828 183.085 35.5378 183.121 35.2627C183.157 34.9875 183.166 34.8519 183.148 34.8558C183.105 35.1897 182.994 35.6913 182.815 36.3605C182.65 37.0076 182.474 37.6951 182.288 38.423C182.098 39.1327 181.911 39.8131 181.728 40.4641C181.563 41.1111 181.448 41.5945 181.383 41.914L182.535 41.8076ZM192.552 53.7315C192.073 53.9882 191.577 54.1244 191.065 54.14C190.571 54.1516 190.099 54.0915 189.651 53.9596C189.188 53.8499 188.751 53.6867 188.341 53.47C187.931 53.2533 187.58 53.0429 187.287 52.839C187.143 52.5264 187.183 51.8301 187.408 50.7501C187.61 49.6557 187.936 48.3434 188.387 46.813C188.817 45.2683 189.333 43.5996 189.938 41.8067C190.538 39.9957 191.149 38.2302 191.769 36.5104C192.404 34.7683 193.009 33.1567 193.586 31.6756C194.18 30.1905 194.687 29.0015 195.104 28.1088C195.538 27.9956 196.03 27.8412 196.58 27.6456C197.144 27.4278 197.719 27.2647 198.307 27.1564C198.895 27.048 199.464 27.0297 200.014 27.1014C200.583 27.1691 201.092 27.4025 201.541 27.8016C202.001 29.3063 202.316 30.7566 202.485 32.1525C202.672 33.5445 202.786 34.9046 202.825 36.2331C202.865 37.5615 202.855 38.8815 202.796 40.1932C202.751 41.4827 202.719 42.7885 202.7 44.1106C202.695 45.4104 202.726 46.7408 202.792 48.1017C202.872 49.4405 203.068 50.8304 203.381 52.2716C202.723 52.5861 202.068 52.7376 201.416 52.7262C200.769 52.733 200.169 52.653 199.617 52.4862C199.069 52.3376 198.599 52.1529 198.207 51.9322C197.82 51.7298 197.564 51.5655 197.442 51.4393C197.405 51.0079 197.394 50.5614 197.409 50.0998C197.438 49.6161 197.478 49.1395 197.529 48.67C197.58 48.2005 197.621 47.733 197.654 47.2675C197.687 46.802 197.694 46.3515 197.676 45.9161C197.362 45.9651 197.005 46.0332 196.603 46.1202C196.22 46.2033 195.832 46.3065 195.438 46.4301C195.063 46.5496 194.708 46.6743 194.374 46.8042C194.039 46.9341 193.77 47.0593 193.567 47.1797C193.214 48.0202 192.935 48.8448 192.728 49.6537C192.552 50.3412 192.421 51.0572 192.334 51.8019C192.247 52.5465 192.32 53.1897 192.552 53.7315ZM198.312 45.807C198.274 45.987 198.257 46.3058 198.261 46.7634C198.279 47.1988 198.301 47.6525 198.327 48.1244C198.371 48.5923 198.435 49.0178 198.518 49.4009C198.597 49.7658 198.688 49.9657 198.791 50.0006C198.827 49.2861 198.87 48.7326 198.918 48.34C198.967 47.9475 199.002 47.6247 199.023 47.3717C199.059 47.0965 199.094 46.8598 199.127 46.6616C199.157 46.4451 199.174 46.1739 199.18 45.8479L198.312 45.807ZM201.009 49.9209C200.963 48.6512 200.975 47.3878 201.046 46.1308C201.05 45.8818 200.956 45.7588 200.766 45.7619C200.576 45.765 200.45 45.9354 200.39 46.2732C200.333 46.6293 200.308 46.9977 200.314 47.3783C200.316 47.7408 200.346 48.0973 200.403 48.4478C200.474 48.7762 200.558 49.0733 200.653 49.339C200.749 49.6047 200.868 49.7987 201.009 49.9209ZM199.022 40.4958C199.044 40.2428 199.036 39.9006 199 39.4692C198.96 39.0195 198.907 38.6011 198.843 38.214C198.774 37.8087 198.696 37.4915 198.608 37.2622C198.538 37.029 198.484 37.0024 198.447 37.1824C198.555 37.5029 198.604 37.817 198.594 38.1247C198.599 38.4102 198.574 38.6925 198.52 38.9717C198.484 39.2468 198.45 39.5311 198.418 39.8245C198.382 40.0997 198.376 40.3781 198.399 40.6596L199.022 40.4958ZM196.248 31.9292C196.088 31.983 195.88 32.1713 195.625 32.4939C195.367 32.7983 195.104 33.1705 194.836 33.6105C194.565 34.0323 194.31 34.4886 194.073 34.9794C193.831 35.4519 193.634 35.9055 193.48 36.34C193.34 36.7523 193.263 37.1032 193.25 37.3927C193.236 37.6821 193.328 37.8436 193.526 37.877C193.548 37.624 193.679 37.2137 193.918 36.6459C194.177 36.0743 194.467 35.4764 194.79 34.8525C195.113 34.2285 195.415 33.6378 195.695 33.0804C195.976 32.523 196.16 32.1393 196.248 31.9292ZM193.338 35.0242C193.246 35.2161 193.099 35.4674 192.899 35.7782C192.718 36.085 192.556 36.397 192.415 36.7141C192.292 37.0273 192.23 37.3176 192.231 37.5848C192.25 37.8482 192.432 38.0283 192.778 38.1252C192.686 37.8777 192.697 37.5316 192.811 37.0867C192.924 36.6419 193.044 36.2244 193.169 35.8342C193.313 35.4402 193.422 35.1492 193.496 34.9612C193.566 34.7551 193.513 34.7761 193.338 35.0242ZM197.026 32.4768C196.857 32.9335 196.619 33.5964 196.311 34.4655C196.017 35.3123 195.717 36.2178 195.41 37.182C195.118 38.1241 194.849 39.0419 194.603 39.9356C194.376 40.8253 194.263 41.5374 194.264 42.0719C194.573 41.9095 194.851 41.7824 195.098 41.6905C195.346 41.5986 195.586 41.5179 195.819 41.4482C196.067 41.3563 196.335 41.2696 196.622 41.1881C196.91 41.1065 197.258 40.9929 197.666 40.8472C197.667 40.2358 197.669 39.5858 197.673 38.8975C197.691 38.1869 197.679 37.4731 197.638 36.7561C197.616 36.0352 197.555 35.3131 197.455 34.5898C197.374 33.8625 197.231 33.1582 197.026 32.4768ZM206.196 45.2721L206.424 42.7586C206.326 42.8371 206.245 42.9025 206.18 42.9548C206.017 43.0856 205.89 43.1608 205.799 43.1806C205.826 43.4804 205.856 43.7509 205.889 43.992C205.922 44.2331 205.947 44.4762 205.961 44.7212C205.991 44.9441 206.022 45.1761 206.055 45.4172C206.065 45.5489 206.074 45.6805 206.083 45.8122C206.115 45.9581 206.138 46.106 206.151 46.2559L206.203 46.1013L206.196 45.2721ZM209.808 30.2208C209.974 30.2803 210.212 30.2765 210.522 30.2092C210.828 30.1237 211.139 30.018 211.456 29.8921C211.772 29.7662 212.043 29.6501 212.268 29.544C212.508 29.4156 212.633 29.3312 212.643 29.2908C212.074 29.3952 211.583 29.5111 211.171 29.6386C210.774 29.7438 210.32 29.9379 209.808 30.2208ZM207.615 32.5298C207.505 32.7257 207.366 33.0519 207.197 33.5087C207.029 33.9654 206.88 34.5133 206.752 35.1525C206.623 35.7916 206.53 36.5089 206.473 37.3043C206.413 38.0815 206.439 38.9067 206.552 39.7799C206.542 39.6483 206.555 39.4448 206.591 39.1697C206.627 38.8945 206.664 38.5809 206.702 38.2288C206.755 37.8544 206.813 37.4599 206.876 37.0452C206.953 36.6082 207.023 36.1824 207.086 35.7677C207.234 34.7804 207.411 33.7011 207.615 32.5298ZM221.291 43.8037C221.18 44.611 220.978 45.3996 220.687 46.1696C220.395 46.9395 220.029 47.6301 219.589 48.2413C218.837 49.2639 217.957 50.0086 216.95 50.4752C215.948 50.96 214.95 51.2049 213.958 51.21C212.966 51.215 212.042 51.0047 211.186 50.5792C210.333 50.1719 209.694 49.6037 209.269 48.8747C208.843 48.1456 208.703 47.2783 208.848 46.2728C208.989 45.249 209.549 44.1343 210.529 42.9285C210.389 43.5129 210.315 44.0542 210.308 44.5522C210.316 45.0281 210.374 45.4738 210.484 45.8894C210.607 46.2828 210.776 46.6664 210.991 47.04C211.202 47.3954 211.451 47.7521 211.739 48.1099C212.948 47.9622 214.008 47.5222 214.919 46.7899C215.83 46.0576 216.523 45.2006 216.998 44.2191C217.491 43.2335 217.727 42.2082 217.706 41.1431C217.685 40.078 217.359 39.146 216.727 38.347C216.592 38.1661 216.311 38.0553 215.882 38.0147C215.452 37.974 215.009 37.9555 214.552 37.9593C214.021 37.9788 213.431 38.0304 212.78 38.1142C212.649 38.1236 212.515 38.1239 212.379 38.1151C212.262 38.1024 212.147 38.0988 212.033 38.1043C211.916 38.0915 211.835 38.0708 211.79 38.0423C211.404 37.935 211.114 37.7877 210.921 37.6005C210.746 37.4092 210.625 37.2062 210.56 36.9912C210.512 36.7723 210.492 36.5474 210.499 36.3167C210.507 36.0859 210.509 35.8753 210.506 35.685C210.828 35.6725 211.128 35.6457 211.405 35.6046L217.546 36.7082C218.336 36.8236 218.999 37.1094 219.537 37.5657C220.072 38.0038 220.487 38.5536 220.783 39.2152C221.076 39.8585 221.261 40.5823 221.34 41.3865C221.415 42.1725 221.399 42.9782 221.291 43.8037ZM207.639 30.2613C207.684 30.2898 207.728 30.3184 207.772 30.347C208.06 30.2654 208.357 30.1819 208.664 30.0964C209.116 29.9793 209.573 29.8419 210.035 29.6844C210.494 29.5085 210.934 29.3367 211.356 29.1688C211.792 28.9787 212.188 28.7782 212.544 28.5675C212.142 28.6545 211.716 28.7566 211.263 28.8737C210.807 28.9726 210.348 29.1008 209.886 29.2584C209.438 29.3938 208.995 29.5565 208.559 29.7466C208.232 29.913 207.926 30.0846 207.639 30.2613ZM204.238 31.8869C204.271 31.4213 204.304 30.9558 204.337 30.4903C204.202 30.3094 204.207 30.1556 204.351 30.0288L204.379 30.0228C204.381 29.9459 204.393 29.867 204.413 29.7861C204.501 29.7481 204.659 29.6851 204.888 29.5972C205.113 29.4911 205.364 29.3698 205.64 29.2336C205.934 29.0934 206.247 28.9492 206.578 28.8011C206.908 28.6529 207.221 28.5088 207.515 28.3685L210.438 27.0472C211.172 26.7351 211.883 26.4472 212.571 26.1835C213.153 25.9617 213.738 25.7491 214.324 25.5456C214.928 25.3381 215.404 25.1968 215.75 25.1217C215.841 25.1019 216.024 25.0623 216.298 25.003C216.585 24.9214 216.883 24.8379 217.189 24.7524C217.495 24.6669 217.778 24.6056 218.037 24.5685C218.311 24.5092 218.479 24.4918 218.541 24.5164C218.939 24.6784 219.383 24.9166 219.871 25.2309C220.359 25.5452 220.821 25.913 221.256 26.3344C221.379 26.4605 221.466 26.6422 221.518 26.8793C221.569 27.1165 221.658 27.2597 221.783 27.3089C220.452 27.4256 219.192 27.651 218.004 27.985C216.83 28.2969 215.75 28.6457 214.764 29.0314C213.797 29.4131 212.933 29.7914 212.174 30.1661C211.411 30.5226 210.786 30.8109 210.299 31.0311C209.83 31.2474 209.421 31.4316 209.072 31.5837C208.883 31.6819 208.711 31.7671 208.554 31.8392C208.275 32.6638 208.06 33.5222 207.909 34.4143C207.7 35.4722 207.523 36.5514 207.38 37.6521C207.255 38.7489 207.133 39.8639 207.016 40.9971C206.917 42.1264 206.785 43.2343 206.62 44.3207L206.635 45.979L207.486 48.3158C207.298 48.242 207.08 48.251 206.833 48.3429C206.585 48.4347 206.348 48.4861 206.121 48.4971C205.913 48.5042 205.739 48.4081 205.6 48.209C205.443 48.0138 205.364 47.6014 205.361 46.9717C205.284 46.9692 205.241 47.0358 205.232 47.1714C205.205 47.311 205.184 47.4779 205.169 47.6722C205.154 47.8665 205.129 48.0628 205.096 48.261C205.044 48.4633 204.972 48.6127 204.878 48.7094C204.664 48.1637 204.498 47.4835 204.378 46.669C204.237 45.8401 204.138 44.9447 204.082 43.9827C204.008 43.0246 203.974 42.0293 203.979 40.9967C203.962 39.9499 203.96 38.9284 203.974 37.9323C204.017 36.1083 204.1 34.1994 204.222 32.2057L204.216 32.1783C204.115 32.0664 204.123 31.9693 204.238 31.8869ZM233.797 45.6188C233.446 45.8478 232.931 46.0739 232.254 46.2972C231.58 46.5387 230.834 46.7101 230.016 46.8111C229.197 46.9122 228.355 46.9038 227.489 46.786C226.627 46.6864 225.828 46.3918 225.091 45.9021C224.355 45.4124 223.732 44.6975 223.222 43.7574C222.713 42.8174 222.396 41.5776 222.273 40.0382C222.187 39.0254 222.198 37.8866 222.305 36.6217C222.409 35.3386 222.595 34.0376 222.863 32.7189C223.145 31.3779 223.51 30.0668 223.958 28.7854C224.402 27.4858 224.931 26.3112 225.544 25.2615C226.171 24.1896 226.883 23.2902 227.68 22.5634C228.478 21.8365 229.36 21.3683 230.327 21.1586C231.598 21.2077 232.692 21.3621 233.607 21.6219C234.538 21.8595 235.311 22.2553 235.928 22.8092C236.559 23.3409 237.046 24.0469 237.39 24.9274C237.734 25.8079 237.955 26.9156 238.053 28.2503C238.226 30.5432 238.226 32.6155 238.055 34.4672C237.883 36.319 237.591 37.9676 237.179 39.4132C236.785 40.8548 236.29 42.0984 235.696 43.1442C235.116 44.1677 234.483 44.9926 233.797 45.6188ZM228.327 28.5831C227.779 29.1411 227.379 29.6291 227.126 30.0469C226.887 30.4425 226.758 30.948 226.738 31.5634C226.97 31.3986 227.155 31.1961 227.294 30.9558C227.429 30.6974 227.544 30.4337 227.638 30.1649C227.751 29.8922 227.855 29.6214 227.949 29.3526C228.04 29.0655 228.166 28.809 228.327 28.5831ZM227.116 31.8539C227.245 32.0935 227.435 32.1764 227.686 32.1028C227.653 31.8617 227.676 31.6178 227.757 31.3712C227.833 31.1064 227.938 30.8447 228.073 30.5863C228.208 30.3278 228.352 30.0673 228.506 29.8049C228.659 29.5425 228.794 29.284 228.911 29.0295C228.425 29.3449 228.056 29.7591 227.805 30.2721C227.553 30.7851 227.324 31.3123 227.116 31.8539ZM227.439 26.3402C227.965 25.7679 228.445 25.167 228.882 24.5375C229.318 23.9081 229.779 23.302 230.264 22.7194C229.932 22.7723 229.61 22.9185 229.299 23.1578C228.984 23.3789 228.701 23.6599 228.45 24.0008C228.2 24.3417 227.986 24.7223 227.81 25.1425C227.63 25.5445 227.506 25.9437 227.439 26.3402ZM233.856 25.8083C233.167 26.4162 232.574 26.9841 232.077 27.512C231.598 28.036 231.162 28.5794 230.769 29.1423C230.393 29.7012 230.039 30.3129 229.705 30.9773C229.386 31.6195 229.041 32.3629 228.67 33.2073L228.401 34.2112C228.209 34.5584 228.058 35.0497 227.947 35.6849C227.855 36.3161 227.824 37.0104 227.854 37.7678C227.899 38.503 228.005 39.2537 228.171 40.0199C228.351 40.7639 228.609 41.4243 228.944 42.001C229.298 42.5738 229.737 43.0134 230.262 43.3198C230.805 43.6222 231.45 43.6923 232.198 43.5302C232.795 42.8468 233.327 41.9962 233.794 40.9781C234.279 39.9561 234.682 38.8658 235.004 37.7073C235.326 36.5488 235.556 35.3625 235.693 34.1484C235.827 32.916 235.854 31.7641 235.775 30.6926C235.71 29.5989 235.518 28.6281 235.201 27.7802C234.897 26.91 234.449 26.2527 233.856 25.8083ZM228.498 33.0728C228.713 32.3004 228.975 31.5749 229.287 30.8962C229.612 30.1953 229.973 29.5249 230.369 28.8851C230.161 29.1594 229.923 29.469 229.654 29.8139C229.399 30.1365 229.168 30.4826 228.962 30.852C228.77 31.1993 228.62 31.566 228.513 31.9522C228.406 32.3383 228.401 32.7119 228.498 33.0728ZM226.471 42.8812C226.446 42.5045 226.424 42.1369 226.403 41.7784C226.383 41.4199 226.418 41.0972 226.509 40.8101C226.413 40.8117 226.347 40.6827 226.31 40.4234C226.269 40.1458 226.239 39.7893 226.221 39.3539C226.222 38.9145 226.239 38.4236 226.274 37.8812C226.31 37.3387 226.352 36.7852 226.401 36.2206C226.451 35.6559 226.515 35.1167 226.595 34.6028C226.671 34.0707 226.762 33.6115 226.869 33.2254C226.683 33.2467 226.555 33.3604 226.485 33.5666C226.411 33.7545 226.35 33.9587 226.303 34.1791C226.269 34.3774 226.23 34.5483 226.185 34.6918C226.139 34.8353 226.039 34.8571 225.884 34.7571C225.888 34.6032 225.946 34.4284 226.056 34.2325C226.163 34.0185 226.253 33.8175 226.327 33.6296C226.401 33.4416 226.431 33.2727 226.417 33.1228C226.404 32.9729 226.296 32.8722 226.094 32.8205C226.02 33.0084 225.925 33.3633 225.809 33.885C225.693 34.4068 225.588 35.0218 225.493 35.73C225.412 36.4159 225.342 37.1475 225.281 37.9247C225.235 38.6797 225.239 39.4045 225.294 40.0993C225.345 40.7758 225.465 41.3707 225.653 41.8839C225.836 42.3789 226.109 42.7113 226.471 42.8812ZM227.066 38.6263C227.016 38.217 227.045 37.7809 227.155 37.3178C227.265 36.8547 227.378 36.4098 227.496 35.9832C227.632 35.5526 227.73 35.1685 227.79 34.8306C227.847 34.4746 227.797 34.199 227.64 34.0038C227.539 34.3313 227.426 34.6901 227.3 35.0802C227.171 35.4521 227.065 35.8474 226.984 36.2661C226.899 36.6665 226.853 37.0682 226.845 37.4711C226.836 37.8739 226.91 38.259 227.066 38.6263ZM255.732 19.2311C255.874 19.8878 255.967 20.6698 256.011 21.5771C256.073 22.4805 256.06 23.429 255.969 24.4226C255.879 25.4163 255.723 26.4147 255.501 27.4178C255.28 28.4209 254.972 29.3376 254.579 30.1677C254.186 30.9978 253.702 31.7141 253.126 32.3166C252.546 32.9007 251.865 33.287 251.085 33.4754C250.45 33.632 249.805 33.6956 249.149 33.6659C248.508 33.614 247.906 33.4388 247.345 33.1403C246.784 32.8418 246.295 32.3939 245.879 31.7965C245.481 31.1951 245.194 30.3979 245.016 29.4049C244.865 30.9085 244.734 32.1976 244.623 33.2721C244.512 34.3467 244.426 35.3586 244.364 36.3079C244.303 37.2571 244.271 38.2096 244.268 39.1652C244.283 40.1169 244.332 41.2237 244.415 42.4855C244.453 42.5728 244.467 42.6366 244.456 42.6771C244.446 42.7175 244.44 42.7762 244.437 42.8531C244.439 42.9483 244.459 43.0871 244.499 43.2695C244.538 43.4519 244.625 43.7196 244.759 44.0726C244.514 44.0876 244.127 44.0663 243.599 44.009C243.071 43.9516 242.528 43.8688 241.969 43.7607C241.429 43.6486 240.949 43.5044 240.529 43.3281C240.091 43.1558 239.85 42.9693 239.806 42.7686C239.68 42.1848 239.603 41.5234 239.576 40.7842C239.532 40.049 239.526 39.2766 239.561 38.4669C239.584 37.4303 239.644 36.3859 239.741 35.3335C239.819 34.2851 239.905 33.2732 240 32.2978C239.824 32.5459 239.713 32.9139 239.666 33.4016C239.615 33.871 239.575 34.3477 239.546 34.8314C239.499 35.3191 239.44 35.7521 239.369 36.1304C239.299 36.5086 239.163 36.7195 238.962 36.763C238.962 36.4958 238.999 35.9624 239.074 35.1631C239.149 34.3637 239.254 33.3954 239.389 32.2582C239.493 31.4144 239.584 30.7356 239.664 30.2217C239.74 29.6896 239.801 29.3994 239.848 29.3511C239.845 29.428 239.857 29.5688 239.882 29.7734C239.903 29.9598 239.941 30.1331 239.995 30.2933C240.067 30.4496 240.156 30.5543 240.263 30.6075C240.385 30.6385 240.537 30.5482 240.72 30.3365C240.674 31.0915 240.61 31.898 240.529 32.7561C240.466 33.6102 240.407 34.3965 240.353 35.115C240.294 35.8152 240.249 36.3981 240.216 36.8636C240.179 37.3109 240.188 37.5286 240.243 37.5167C240.327 36.5817 240.424 35.663 240.534 34.7606C240.643 33.8581 240.751 32.9465 240.857 32.0258C240.978 31.0829 241.112 30.1178 241.261 29.1305C241.406 28.125 241.553 27.0425 241.703 25.8831C241.548 26.0504 241.431 26.3049 241.353 26.6467C241.288 26.9663 241.23 27.3132 241.177 27.6875C241.139 28.0396 241.081 28.3865 241.002 28.7283C240.937 29.0479 240.828 29.2913 240.673 29.4585C240.507 29.399 240.379 29.293 240.289 29.1407C240.213 28.9662 240.164 28.7858 240.143 28.5994C240.118 28.3948 240.111 28.1862 240.122 27.9736C240.129 27.7429 240.131 27.5323 240.128 27.342C240.104 27.2325 240.108 26.9835 240.138 26.5949C240.168 26.2063 240.204 25.7975 240.245 25.3685C240.3 24.9172 240.344 24.5064 240.379 24.1361C240.409 23.7475 240.421 23.4965 240.416 23.3831C240.493 23.3855 240.549 23.4688 240.585 23.633C240.599 23.6108 240.612 23.6271 240.624 23.6818C240.65 23.7143 240.662 23.7691 240.659 23.846C240.653 23.9047 240.647 23.9633 240.64 24.022C240.634 24.0807 240.631 24.1101 240.631 24.1101C240.631 24.3773 240.609 24.6688 240.562 24.9844C240.516 25.3 240.477 25.6045 240.445 25.8979C240.41 26.1731 240.395 26.415 240.402 26.6236C240.405 26.8139 240.456 26.9174 240.556 26.9341C240.575 26.7581 240.603 26.4464 240.639 25.9992C240.676 25.5519 240.717 25.0368 240.763 24.4539C240.804 23.8528 240.847 23.2132 240.891 22.5352C240.935 21.8571 240.965 21.2012 240.98 20.5676C240.991 19.9157 240.985 19.3153 240.962 18.7665C240.957 18.2137 240.916 17.7641 240.841 17.4174C241.016 17.3414 241.239 17.3122 241.51 17.3298C241.795 17.3252 242.107 17.3531 242.445 17.4135C242.827 17.5025 243.215 17.6189 243.609 17.7627C244.022 17.9025 244.368 18.047 244.649 18.1963C244.948 18.3415 245.149 18.4792 245.254 18.6094C245.377 18.7355 245.351 18.8366 245.177 18.9127C245.16 19.0118 245.15 19.0998 245.148 19.1767C245.142 19.2354 245.139 19.3124 245.141 19.4075C245.179 19.4948 245.206 19.5749 245.221 19.6479C245.255 19.7169 245.282 19.797 245.302 19.8882C245.346 20.0889 245.321 20.3712 245.228 20.7352C245.153 21.0952 245.042 21.5492 244.893 22.0971C244.804 22.9187 244.714 23.7402 244.625 24.5618C244.536 25.3834 244.44 26.2161 244.336 27.0598C244.443 26.4064 244.649 25.6836 244.955 24.8915C245.26 24.0994 245.634 23.3117 246.075 22.5284C246.535 21.7411 247.032 20.9935 247.566 20.2855C248.118 19.5736 248.685 18.9732 249.267 18.4842C249.844 17.9769 250.426 17.6215 251.012 17.418C251.617 17.2105 252.19 17.2104 252.731 17.4177C252.719 17.363 252.85 17.392 253.123 17.5048C253.414 17.6136 253.742 17.762 254.107 17.9502C254.473 18.1383 254.815 18.3507 255.134 18.5872C255.467 18.8015 255.666 19.0161 255.732 19.2311ZM252.484 21.8263C252.455 21.6034 252.412 21.3643 252.357 21.1089C252.32 20.8495 252.261 20.6235 252.181 20.4307C252.116 20.2158 252.032 20.0523 251.932 19.9405C251.827 19.8103 251.702 19.7611 251.556 19.7927C251.301 19.8481 251.036 19.9915 250.761 20.223C250.483 20.4362 250.198 20.708 249.907 21.0386C249.611 21.3509 249.317 21.7108 249.023 22.1183C248.73 22.5258 248.454 22.9293 248.197 23.3289C247.564 24.2874 246.937 25.3593 246.316 26.5446C246.491 27.4424 246.727 28.2222 247.024 28.8837C247.142 29.1637 247.278 29.4398 247.432 29.7119C247.583 29.9658 247.755 30.1863 247.948 30.3736C248.142 30.5609 248.355 30.7057 248.587 30.8081C248.815 30.8923 249.057 30.9067 249.313 30.8513C249.531 30.8039 249.766 30.6097 250.017 30.2688C250.286 29.924 250.546 29.495 250.798 28.9821C251.05 28.4691 251.279 27.8942 251.484 27.2575C251.708 26.6168 251.903 25.9729 252.068 25.3259C252.233 24.6788 252.355 24.0508 252.433 23.4417C252.511 22.8327 252.528 22.2942 252.484 21.8263ZM254.863 25.2643C255.094 24.3928 255.211 23.6129 255.215 22.9245C255.214 22.2179 255.161 21.6183 255.054 21.1258C254.927 20.542 254.751 20.0359 254.524 19.6075L253.972 19.4407L254.411 20.4057C254.521 20.6492 254.606 21.0415 254.666 21.5824C254.722 22.105 254.762 22.6408 254.785 23.1896C254.828 23.8296 254.854 24.5212 254.863 25.2643Z" fill="#0076F6"/>
</svg>
